<svg id="svg" xmlns="http://www.w3.org/2000/svg" xmlns:xlink="http://www.w3.org/1999/xlink" width="25" height="25" viewBox="0, 0, 500,500"><g id="svgg">
        <path id="path0" d="M220.033 2.502 C 34.282 24.005,-62.388 245.297,48.586 394.968 C 151.556 533.843,348.444 533.843,451.414 394.968 C 578.879 223.055,434.232 -22.294,220.033 2.502 M278.889 28.975 C 419.428 49.037,504.617 184.567,461.817 320.000 C 453.554 346.146,427.547 392.125,425.049 385.003 C 415.947 359.047,362.827 307.526,333.091 295.813 C 330.169 294.662,323.939 292.082,319.246 290.081 L 310.714 286.441 325.156 273.208 C 387.817 215.790,374.896 121.472,299.305 84.516 C 179.959 26.167,76.528 183.120,174.915 273.273 C 188.984 286.165,189.267 286.635,184.158 288.648 C 143.305 304.745,108.560 332.293,86.456 366.114 C 80.663 374.977,75.456 383.477,74.884 385.003 C 71.431 394.213,42.828 339.422,34.439 307.526 C -5.979 153.868,123.136 6.742,278.889 28.975 M266.756 100.017 C 314.736 109.116,345.619 152.805,338.121 200.971 C 322.436 301.717,177.564 301.717,161.879 200.971 C 152.312 139.519,205.431 88.387,266.756 100.017 M302.593 311.777 C 345.639 325.448,388.360 363.391,404.454 402.245 C 415.114 427.982,317.599 472.059,250.000 472.059 C 182.401 472.059,84.886 427.982,95.546 402.245 C 126.562 327.367,221.315 285.965,302.593 311.777 "
                stroke="none" fill="#FFFFFF" fill-rule="evenodd">
        </path>
                </g>
 </svg>