<svg id="svg" version="1.1" xmlns="http://www.w3.org/2000/svg" xmlns:xlink="http://www.w3.org/1999/xlink" width="0" height="0" viewBox="0, 0, 400,400"><g id="svgg"><path id="path0" d="M326.009 90.729 C 326.000 91.286,327.129 92.604,327.392 92.342 C 327.476 92.257,327.202 91.741,326.782 91.194 C 326.361 90.647,326.014 90.438,326.009 90.729 M67.002 100.397 C 66.867 100.615,66.941 101.110,67.166 101.497 C 67.517 102.100,67.577 102.044,67.588 101.100 C 67.601 99.950,67.416 99.728,67.002 100.397 M330.800 105.624 C 330.800 106.077,330.980 106.336,331.200 106.200 C 331.420 106.064,331.600 105.693,331.600 105.376 C 331.600 105.059,331.420 104.800,331.200 104.800 C 330.980 104.800,330.800 105.171,330.800 105.624 M172.000 129.232 C 170.130 129.645,167.970 130.105,167.200 130.255 C 165.675 130.551,161.366 132.608,160.988 133.220 C 160.858 133.429,160.410 133.600,159.990 133.600 C 159.571 133.600,158.675 134.140,158.000 134.800 C 157.325 135.460,156.534 136.000,156.242 136.000 C 155.950 136.000,155.049 136.450,154.238 137.000 C 153.428 137.550,152.547 138.000,152.282 138.001 C 152.017 138.001,151.170 138.541,150.400 139.200 C 149.630 139.859,148.788 140.399,148.529 140.399 C 148.269 140.400,147.819 140.631,147.529 140.914 C 147.238 141.196,146.190 141.898,145.200 142.473 C 144.210 143.048,142.817 144.077,142.104 144.759 C 141.391 145.442,140.446 146.000,140.004 146.000 C 139.556 146.000,139.200 146.266,139.200 146.600 C 139.200 147.171,138.990 147.270,137.600 147.361 C 137.208 147.386,136.958 147.906,136.878 148.863 C 136.783 149.999,136.460 150.530,135.433 151.234 C 134.048 152.182,133.200 153.899,133.200 155.752 C 133.200 156.354,133.040 156.748,132.843 156.627 C 132.450 156.384,132.251 157.365,131.418 163.671 C 131.107 166.021,130.662 168.631,130.429 169.471 C 127.454 180.184,135.458 201.422,146.337 211.685 C 152.914 217.889,159.656 221.612,168.351 223.839 L 172.103 224.800 226.151 224.783 C 286.426 224.763,287.199 224.735,291.804 222.398 C 305.672 215.359,302.835 198.440,287.311 195.604 C 285.047 195.190,280.502 195.132,266.311 195.337 C 187.703 196.474,183.990 196.391,177.800 193.366 C 163.710 186.480,159.300 168.289,169.120 157.560 C 176.441 149.562,181.246 148.406,207.200 148.400 C 221.657 148.397,222.171 148.324,223.891 146.050 C 224.161 145.692,225.121 144.442,226.024 143.270 C 228.260 140.369,229.181 138.186,229.191 135.760 C 229.201 133.572,228.556 131.200,227.952 131.200 C 227.749 131.200,227.388 130.773,227.150 130.251 C 226.742 129.355,226.654 129.334,225.564 129.878 C 224.929 130.194,224.220 130.336,223.988 130.192 C 223.755 130.049,223.348 130.102,223.082 130.310 C 222.817 130.519,222.105 130.808,221.500 130.952 C 220.895 131.097,220.400 131.475,220.400 131.794 C 220.400 132.112,219.999 132.587,219.508 132.849 C 219.018 133.112,218.375 133.568,218.080 133.863 C 217.434 134.509,214.632 134.527,210.200 133.915 C 208.440 133.671,205.560 133.442,203.800 133.406 C 196.674 133.258,192.677 133.064,194.000 132.932 C 197.631 132.569,198.298 132.351,197.200 131.885 C 196.204 131.463,196.203 131.461,197.100 131.303 C 198.533 131.051,198.142 130.400,196.557 130.400 C 195.486 130.400,195.170 130.544,195.329 130.959 C 195.563 131.569,194.420 131.909,192.900 131.680 C 192.259 131.583,192.000 131.273,192.000 130.600 C 192.000 129.925,192.257 129.619,192.900 129.528 C 193.395 129.458,190.920 129.440,187.400 129.488 C 181.760 129.566,180.935 129.494,180.454 128.888 C 180.060 128.391,179.856 128.339,179.721 128.700 C 179.498 129.293,176.400 129.387,176.400 128.800 C 176.400 128.293,176.124 128.320,172.000 129.232 M203.200 132.400 C 203.200 132.620,203.470 132.800,203.800 132.800 C 204.130 132.800,204.400 132.620,204.400 132.400 C 204.400 132.180,204.130 132.000,203.800 132.000 C 203.470 132.000,203.200 132.180,203.200 132.400 M270.534 148.800 C 270.534 150.450,270.605 151.125,270.691 150.300 C 270.778 149.475,270.778 148.125,270.691 147.300 C 270.605 146.475,270.534 147.150,270.534 148.800 M270.893 154.800 C 270.893 155.570,270.975 155.885,271.076 155.500 C 271.176 155.115,271.176 154.485,271.076 154.100 C 270.975 153.715,270.893 154.030,270.893 154.800 M65.200 155.600 C 65.200 156.347,65.307 156.453,65.680 156.080 C 66.053 155.707,66.053 155.493,65.680 155.120 C 65.307 154.747,65.200 154.853,65.200 155.600 M259.100 157.498 C 261.135 157.571,264.465 157.571,266.500 157.498 C 268.535 157.425,266.870 157.366,262.800 157.366 C 258.730 157.366,257.065 157.425,259.100 157.498 M261.900 166.696 C 263.275 166.774,265.525 166.774,266.900 166.696 C 268.275 166.618,267.150 166.554,264.400 166.554 C 261.650 166.554,260.525 166.618,261.900 166.696 M284.918 166.698 C 286.633 166.773,289.333 166.772,290.918 166.697 C 292.503 166.621,291.100 166.559,287.800 166.560 C 284.500 166.561,283.203 166.622,284.918 166.698 M270.493 170.000 C 270.493 170.770,270.575 171.085,270.676 170.700 C 270.776 170.315,270.776 169.685,270.676 169.300 C 270.575 168.915,270.493 169.230,270.493 170.000 M270.550 176.200 C 270.551 178.620,270.616 179.558,270.696 178.285 C 270.776 177.012,270.775 175.032,270.694 173.885 C 270.614 172.738,270.549 173.780,270.550 176.200 M65.701 188.600 C 65.705 189.480,65.787 189.793,65.883 189.295 C 65.979 188.798,65.975 188.078,65.875 187.695 C 65.775 187.313,65.696 187.720,65.701 188.600 M331.600 190.800 C 331.600 191.680,331.780 192.400,332.000 192.400 C 332.220 192.400,332.400 191.680,332.400 190.800 C 332.400 189.920,332.220 189.200,332.000 189.200 C 331.780 189.200,331.600 189.920,331.600 190.800 M331.600 205.200 C 331.600 206.080,331.780 206.800,332.000 206.800 C 332.220 206.800,332.400 206.080,332.400 205.200 C 332.400 204.320,332.220 203.600,332.000 203.600 C 331.780 203.600,331.600 204.320,331.600 205.200 M127.361 225.116 C 125.484 226.759,125.264 227.433,125.497 230.835 C 125.708 233.914,124.655 237.600,123.564 237.600 C 122.793 237.600,123.270 238.432,125.045 240.181 C 126.059 241.182,127.124 242.000,127.411 242.000 C 127.698 242.000,127.993 242.135,128.067 242.300 C 128.787 243.920,143.467 251.567,149.600 253.517 C 159.214 256.573,157.712 256.487,197.464 256.268 C 217.009 256.160,233.450 255.981,234.000 255.869 C 234.550 255.758,236.046 255.652,237.325 255.633 L 239.651 255.600 239.525 254.302 C 239.420 253.210,239.209 252.971,238.200 252.798 C 236.606 252.525,236.668 251.832,238.300 251.675 C 239.804 251.530,239.971 251.027,238.736 250.366 C 237.901 249.919,237.897 249.890,238.636 249.493 C 239.752 248.893,239.760 248.875,239.208 248.210 C 238.834 247.759,238.825 247.600,239.175 247.600 C 240.324 247.600,239.464 244.607,238.276 244.471 C 237.658 244.400,237.063 244.109,236.953 243.823 C 236.813 243.457,236.211 243.365,234.917 243.510 C 233.643 243.654,233.163 243.583,233.351 243.279 C 233.648 242.799,231.935 242.427,229.600 242.464 C 228.830 242.476,224.690 242.294,220.400 242.060 C 214.089 241.716,197.451 241.343,174.738 241.036 C 173.274 241.016,172.167 240.853,172.278 240.673 C 172.389 240.493,172.097 240.246,171.629 240.123 C 171.014 239.963,170.844 239.692,171.016 239.150 C 171.192 238.596,171.055 238.400,170.494 238.400 C 169.452 238.400,169.119 238.821,169.652 239.463 C 170.011 239.895,169.820 240.000,168.673 240.000 C 167.383 240.000,166.038 239.217,167.276 239.187 C 168.105 239.167,166.362 238.006,165.424 237.954 C 164.638 237.909,164.636 237.898,165.384 237.708 C 166.063 237.536,166.009 237.443,164.984 237.017 C 163.361 236.342,161.630 237.007,162.707 237.891 C 163.088 238.203,163.175 238.345,162.900 238.206 C 162.625 238.067,162.400 238.132,162.400 238.352 C 162.400 238.571,163.255 238.881,164.300 239.041 L 166.200 239.330 165.000 239.847 C 164.340 240.131,162.900 240.358,161.800 240.350 C 160.700 240.343,160.070 240.247,160.400 240.137 C 160.730 240.027,161.270 239.844,161.600 239.731 C 161.988 239.599,161.706 239.354,160.800 239.037 C 159.956 238.742,159.210 238.690,158.921 238.906 C 158.136 239.492,153.996 238.766,151.000 237.516 C 149.460 236.874,147.570 236.110,146.800 235.819 C 144.327 234.882,141.755 233.214,136.287 229.000 C 134.036 227.265,129.124 223.997,128.800 224.019 C 128.690 224.026,128.043 224.520,127.361 225.116 M65.724 227.400 C 65.726 228.720,65.801 229.212,65.890 228.493 C 65.979 227.774,65.977 226.694,65.886 226.093 C 65.795 225.492,65.722 226.080,65.724 227.400 M256.027 269.679 C 250.440 272.443,253.449 281.982,259.161 279.616 C 263.738 277.720,263.823 272.246,259.314 269.712 L 257.743 268.829 256.027 269.679 M309.693 284.000 C 309.693 284.770,309.775 285.085,309.876 284.700 C 309.976 284.315,309.976 283.685,309.876 283.300 C 309.775 282.915,309.693 283.230,309.693 284.000 M283.305 283.887 C 283.914 283.979,284.814 283.977,285.305 283.882 C 285.797 283.787,285.300 283.711,284.200 283.714 C 283.100 283.717,282.697 283.795,283.305 283.887 M313.693 284.800 C 313.693 285.570,313.775 285.885,313.876 285.500 C 313.976 285.115,313.976 284.485,313.876 284.100 C 313.775 283.715,313.693 284.030,313.693 284.800 M145.511 284.693 C 146.451 284.778,147.891 284.777,148.711 284.691 C 149.530 284.605,148.760 284.536,147.000 284.537 C 145.240 284.539,144.570 284.609,145.511 284.693 M214.500 284.676 C 214.885 284.776,215.515 284.776,215.900 284.676 C 216.285 284.575,215.970 284.493,215.200 284.493 C 214.430 284.493,214.115 284.575,214.500 284.676 M241.911 284.693 C 242.851 284.778,244.291 284.777,245.111 284.691 C 245.930 284.605,245.160 284.536,243.400 284.537 C 241.640 284.539,240.970 284.609,241.911 284.693 M255.712 285.095 C 256.764 285.177,258.384 285.176,259.312 285.092 C 260.240 285.008,259.380 284.941,257.400 284.942 C 255.420 284.943,254.660 285.012,255.712 285.095 M150.893 287.200 C 150.893 287.970,150.975 288.285,151.076 287.900 C 151.176 287.515,151.176 286.885,151.076 286.500 C 150.975 286.115,150.893 286.430,150.893 287.200 M117.983 288.100 C 119.641 289.866,120.000 290.184,120.000 289.883 C 120.000 289.819,119.145 288.964,118.100 287.983 L 116.200 286.200 117.983 288.100 M304.262 286.700 C 304.160 286.865,304.914 286.946,305.938 286.880 C 308.859 286.693,309.214 286.497,306.724 286.446 C 305.472 286.421,304.364 286.535,304.262 286.700 M294.400 288.200 C 295.146 288.970,295.847 289.600,295.957 289.600 C 296.067 289.600,295.546 288.970,294.800 288.200 C 294.054 287.430,293.353 286.800,293.243 286.800 C 293.133 286.800,293.654 287.430,294.400 288.200 M95.375 288.500 L 94.200 289.800 95.500 288.625 C 96.712 287.530,96.984 287.200,96.675 287.200 C 96.606 287.200,96.021 287.785,95.375 288.500 M142.973 297.400 C 142.973 302.900,143.030 305.205,143.099 302.523 C 143.168 299.841,143.168 295.341,143.099 292.523 C 143.030 289.705,142.974 291.900,142.973 297.400 M310.109 294.000 C 310.109 294.990,310.187 295.395,310.282 294.900 C 310.378 294.405,310.378 293.595,310.282 293.100 C 310.187 292.605,310.109 293.010,310.109 294.000 M165.773 305.000 C 165.773 310.500,165.830 312.805,165.899 310.123 C 165.968 307.441,165.968 302.941,165.899 300.123 C 165.830 297.305,165.774 299.500,165.773 305.000 M174.542 299.400 C 174.541 301.380,174.608 302.240,174.692 301.312 C 174.776 300.384,174.777 298.764,174.695 297.712 C 174.612 296.660,174.543 297.420,174.542 299.400 M282.100 297.496 C 283.365 297.575,285.435 297.575,286.700 297.496 C 287.965 297.416,286.930 297.351,284.400 297.351 C 281.870 297.351,280.835 297.416,282.100 297.496 M211.701 299.800 C 211.705 300.680,211.787 300.993,211.883 300.495 C 211.979 299.998,211.975 299.278,211.875 298.895 C 211.775 298.513,211.696 298.920,211.701 299.800 M252.893 300.000 C 252.893 300.770,252.975 301.085,253.076 300.700 C 253.176 300.315,253.176 299.685,253.076 299.300 C 252.975 298.915,252.893 299.230,252.893 300.000 M90.493 300.400 C 90.493 301.170,90.575 301.485,90.676 301.100 C 90.776 300.715,90.776 300.085,90.676 299.700 C 90.575 299.315,90.493 299.630,90.493 300.400 M196.500 303.476 C 196.885 303.576,197.515 303.576,197.900 303.476 C 198.285 303.375,197.970 303.293,197.200 303.293 C 196.430 303.293,196.115 303.375,196.500 303.476 M279.100 303.496 C 280.475 303.574,282.725 303.574,284.100 303.496 C 285.475 303.418,284.350 303.354,281.600 303.354 C 278.850 303.354,277.725 303.418,279.100 303.496 M294.700 303.482 C 295.195 303.578,296.005 303.578,296.500 303.482 C 296.995 303.387,296.590 303.309,295.600 303.309 C 294.610 303.309,294.205 303.387,294.700 303.482 M207.905 303.883 C 208.402 303.979,209.122 303.975,209.505 303.875 C 209.887 303.775,209.480 303.696,208.600 303.701 C 207.720 303.705,207.407 303.787,207.905 303.883 M151.737 310.600 C 151.739 312.360,151.809 313.030,151.893 312.089 C 151.978 311.149,151.977 309.709,151.891 308.889 C 151.805 308.070,151.736 308.840,151.737 310.600 M174.542 311.000 C 174.541 312.980,174.608 313.840,174.692 312.912 C 174.776 311.984,174.777 310.364,174.695 309.312 C 174.612 308.260,174.543 309.020,174.542 311.000 M135.737 312.200 C 135.739 313.960,135.809 314.630,135.893 313.689 C 135.978 312.749,135.977 311.309,135.891 310.489 C 135.805 309.670,135.736 310.440,135.737 312.200 M284.100 311.076 C 284.485 311.176,285.115 311.176,285.500 311.076 C 285.885 310.975,285.570 310.893,284.800 310.893 C 284.030 310.893,283.715 310.975,284.100 311.076 M94.400 311.325 C 94.400 311.394,94.985 311.979,95.700 312.625 L 97.000 313.800 95.825 312.500 C 94.730 311.288,94.400 311.016,94.400 311.325 M118.378 313.100 L 117.000 314.600 118.500 313.222 C 119.896 311.938,120.184 311.600,119.878 311.600 C 119.812 311.600,119.137 312.275,118.378 313.100 M170.500 317.076 C 170.885 317.176,171.515 317.176,171.900 317.076 C 172.285 316.975,171.970 316.893,171.200 316.893 C 170.430 316.893,170.115 316.975,170.500 317.076 M229.111 317.493 C 230.051 317.578,231.491 317.577,232.311 317.491 C 233.130 317.405,232.360 317.336,230.600 317.337 C 228.840 317.339,228.170 317.409,229.111 317.493 M283.907 317.890 C 284.626 317.979,285.706 317.977,286.307 317.886 C 286.908 317.795,286.320 317.722,285.000 317.724 C 283.680 317.726,283.188 317.801,283.907 317.890 " stroke="none" fill="#4fcee6" fill-rule="evenodd"></path><path id="path1" d="M168.400 87.230 C 164.110 87.382,159.610 87.701,158.400 87.939 C 155.283 88.552,150.505 89.811,148.450 90.561 C 147.487 90.913,146.395 91.200,146.024 91.200 C 143.996 91.200,128.820 99.702,125.619 102.631 C 124.399 103.748,122.050 105.784,120.400 107.155 C 116.793 110.153,111.618 115.773,109.679 118.800 C 108.903 120.010,107.456 122.260,106.463 123.800 C 101.748 131.108,100.508 134.173,97.160 146.800 C 93.661 159.992,93.348 180.248,96.442 193.200 C 98.826 203.183,99.336 205.038,100.289 207.200 C 101.927 210.917,104.470 215.963,105.902 218.339 C 106.652 219.582,107.788 221.551,108.427 222.714 C 109.505 224.677,113.608 230.132,114.296 230.519 C 115.820 231.375,116.917 231.188,118.170 229.859 C 118.883 229.103,120.262 228.087,121.233 227.601 C 122.205 227.115,123.843 225.900,124.873 224.901 C 127.395 222.453,130.893 222.945,135.690 226.419 C 136.537 227.033,137.943 227.655,138.815 227.803 C 139.708 227.953,140.400 228.296,140.400 228.589 C 140.400 229.998,143.524 229.289,145.000 227.545 C 146.668 225.574,145.440 216.820,143.492 216.803 C 143.323 216.801,143.290 216.380,143.419 215.868 C 143.604 215.131,143.359 214.711,142.253 213.868 C 141.484 213.281,140.728 212.403,140.574 211.917 C 140.419 211.431,139.682 210.396,138.934 209.617 C 138.187 208.838,137.022 207.245,136.345 206.077 C 135.669 204.910,134.504 203.046,133.758 201.937 C 133.011 200.827,132.400 199.742,132.400 199.525 C 132.400 199.307,131.798 197.750,131.062 196.065 C 125.106 182.422,125.805 159.495,132.577 146.400 C 136.819 138.195,145.670 128.244,151.187 125.475 C 152.184 124.974,154.544 123.720,156.431 122.688 C 160.069 120.697,165.185 118.889,169.800 117.962 C 172.143 117.492,181.703 117.420,228.400 117.522 C 288.046 117.652,286.371 117.699,291.305 115.729 C 304.800 110.341,303.511 93.620,289.200 88.423 C 286.468 87.430,189.690 86.475,168.400 87.230 " stroke="none" fill="#ee4543" fill-rule="evenodd"></path><path id="path2" d="M112.196 60.807 C 112.058 61.030,111.776 61.109,111.570 60.981 C 111.363 60.854,111.086 61.031,110.954 61.375 C 110.778 61.835,110.145 62.000,108.557 62.000 C 107.371 62.000,106.400 62.180,106.400 62.400 C 106.400 62.620,105.789 62.800,105.043 62.800 C 104.179 62.800,103.598 63.028,103.445 63.428 C 103.285 63.845,102.935 63.970,102.401 63.800 C 101.922 63.648,101.358 63.784,101.006 64.137 C 100.680 64.463,100.051 64.634,99.607 64.518 C 99.153 64.399,98.800 64.502,98.800 64.753 C 98.800 64.999,98.440 65.200,98.000 65.200 C 97.560 65.200,97.200 65.380,97.200 65.600 C 97.200 65.820,96.750 66.000,96.200 66.000 C 95.650 66.000,95.200 66.180,95.200 66.400 C 95.200 66.620,94.919 66.800,94.576 66.800 C 94.207 66.800,94.069 66.612,94.238 66.338 C 94.415 66.052,94.348 65.985,94.062 66.162 C 93.808 66.319,93.600 66.707,93.600 67.024 C 93.600 67.341,93.319 67.600,92.976 67.600 C 92.584 67.600,92.464 67.415,92.653 67.100 C 92.860 66.756,92.744 66.770,92.281 67.145 C 91.911 67.445,91.699 67.836,91.809 68.015 C 92.032 68.375,89.928 70.000,89.238 70.000 C 88.997 70.000,88.800 70.180,88.800 70.400 C 88.800 70.620,88.429 70.800,87.976 70.800 C 87.456 70.800,87.258 70.630,87.438 70.338 C 87.611 70.059,87.548 69.985,87.279 70.151 C 87.035 70.302,86.932 70.678,87.050 70.985 C 87.292 71.616,83.997 74.239,82.434 74.660 C 81.215 74.988,79.600 76.373,79.600 77.090 C 79.600 77.679,78.218 79.135,77.003 79.827 C 76.591 80.061,76.061 80.601,75.827 81.027 C 75.592 81.452,75.310 81.890,75.200 82.000 C 74.498 82.702,73.875 83.709,74.300 83.453 C 75.531 82.714,71.980 91.319,70.369 92.980 C 70.166 93.189,70.000 93.736,70.000 94.195 C 70.000 94.655,69.640 95.737,69.200 96.600 C 68.760 97.463,68.400 98.581,68.400 99.085 C 68.400 99.588,68.236 100.000,68.036 100.000 C 67.836 100.000,67.685 100.827,67.700 101.837 C 67.716 102.924,67.519 103.803,67.216 103.990 C 66.841 104.222,66.723 105.556,66.774 108.990 C 66.821 112.188,66.710 113.591,66.422 113.413 C 66.182 113.265,65.978 113.509,65.950 113.976 C 65.879 115.147,65.831 115.332,65.432 115.962 C 65.188 116.348,65.221 116.434,65.538 116.238 C 65.871 116.033,66.000 116.750,66.000 118.800 C 66.000 120.850,65.871 121.567,65.538 121.362 C 65.237 121.175,65.186 121.253,65.391 121.586 C 65.565 121.866,65.752 123.559,65.807 125.348 C 65.885 127.843,65.840 128.181,65.614 126.800 L 65.320 125.000 65.260 126.900 C 65.227 127.959,65.380 128.800,65.606 128.800 C 66.071 128.800,65.987 131.161,65.513 131.454 C 65.341 131.560,65.213 131.952,65.228 132.324 C 65.251 132.876,65.320 132.853,65.605 132.200 C 65.812 131.725,65.955 137.082,65.957 145.383 C 65.960 155.670,65.834 159.523,65.480 159.960 C 65.104 160.424,65.107 160.489,65.491 160.259 C 65.877 160.027,65.977 172.034,65.959 216.882 C 65.947 248.599,65.787 273.446,65.597 273.000 C 65.269 272.229,65.255 272.232,65.228 273.076 C 65.213 273.558,65.365 274.055,65.567 274.180 C 65.769 274.305,65.929 277.420,65.921 281.103 C 65.913 285.112,65.787 287.238,65.607 286.400 L 65.305 285.000 65.253 286.276 C 65.224 286.978,65.380 287.664,65.600 287.800 C 65.820 287.936,66.000 288.937,66.000 290.024 C 66.000 291.111,66.180 292.000,66.400 292.000 C 66.620 292.000,66.800 292.821,66.800 293.824 C 66.800 294.827,66.637 295.546,66.437 295.423 C 66.238 295.300,66.268 295.829,66.504 296.599 C 66.741 297.370,67.084 298.000,67.267 298.000 C 67.450 298.000,67.600 298.461,67.600 299.024 C 67.600 299.604,67.427 299.940,67.200 299.800 C 66.444 299.333,66.800 300.224,67.600 300.800 C 68.474 301.430,68.740 303.020,67.900 302.593 C 67.625 302.453,67.805 302.697,68.300 303.134 C 68.797 303.573,69.200 304.392,69.200 304.964 C 69.200 305.534,69.380 306.000,69.600 306.000 C 69.820 306.000,70.000 306.281,70.000 306.624 C 70.000 306.991,69.795 307.143,69.500 306.993 C 69.225 306.853,69.405 307.097,69.900 307.534 C 70.395 307.971,70.800 308.614,70.800 308.964 C 70.800 309.314,70.980 309.600,71.200 309.600 C 71.420 309.600,71.600 309.949,71.600 310.376 C 71.600 310.803,71.780 311.264,72.000 311.400 C 72.220 311.536,72.400 312.087,72.400 312.624 C 72.400 313.161,72.601 313.600,72.847 313.600 C 73.092 313.600,73.203 313.947,73.092 314.370 C 72.951 314.910,73.056 315.077,73.445 314.927 C 73.781 314.798,74.000 314.977,74.000 315.381 C 74.000 315.747,73.816 315.933,73.590 315.794 C 73.017 315.440,74.642 318.263,75.606 319.299 C 76.043 319.768,76.400 320.308,76.400 320.499 C 76.400 320.691,76.608 320.719,76.862 320.562 C 77.136 320.392,77.215 320.451,77.057 320.707 C 76.767 321.177,80.470 325.200,81.192 325.200 C 81.721 325.200,83.600 327.010,83.600 327.520 C 83.600 327.716,83.991 328.219,84.469 328.638 C 84.947 329.057,85.206 329.175,85.045 328.900 C 84.883 328.622,84.954 328.400,85.205 328.400 C 85.771 328.400,86.800 329.404,86.800 329.957 C 86.800 330.504,88.066 331.140,88.700 330.913 C 88.975 330.814,89.200 330.928,89.200 331.167 C 89.200 331.405,89.560 331.600,90.000 331.600 C 90.533 331.600,90.800 331.867,90.800 332.400 C 90.800 332.933,91.067 333.200,91.600 333.200 C 92.040 333.200,92.401 333.335,92.403 333.500 C 92.407 333.859,94.344 334.800,95.080 334.800 C 95.366 334.800,95.600 334.980,95.600 335.200 C 95.600 335.420,95.960 335.600,96.400 335.600 C 96.840 335.600,97.200 335.780,97.200 336.000 C 97.200 336.220,97.838 336.400,98.617 336.400 C 99.481 336.400,100.369 336.712,100.892 337.200 C 101.369 337.645,102.304 338.000,102.995 338.000 C 103.680 338.000,104.482 338.225,104.779 338.500 C 105.210 338.900,105.261 338.900,105.035 338.500 C 104.880 338.225,104.943 338.000,105.176 338.000 C 105.409 338.000,105.600 338.180,105.600 338.400 C 105.600 338.620,106.151 338.800,106.824 338.800 C 107.537 338.800,107.944 338.967,107.800 339.200 C 107.647 339.448,108.388 339.600,109.753 339.600 C 110.963 339.600,112.064 339.780,112.200 340.000 C 112.359 340.257,118.407 340.390,129.124 340.372 C 138.804 340.356,145.464 340.200,145.000 340.000 C 144.358 339.724,144.497 339.651,145.700 339.628 C 146.525 339.613,147.200 339.791,147.200 340.024 C 147.200 340.315,149.668 340.380,155.100 340.230 C 159.445 340.111,163.990 340.045,165.200 340.084 C 166.410 340.123,171.450 340.129,176.400 340.098 C 192.117 339.999,196.912 339.989,200.400 340.049 C 202.270 340.081,205.206 339.968,206.925 339.799 C 209.157 339.579,210.313 339.632,210.970 339.984 C 211.593 340.318,212.715 340.390,214.445 340.210 C 215.850 340.063,218.890 339.953,221.200 339.965 C 223.510 339.977,226.390 339.963,227.600 339.934 C 228.810 339.905,233.625 339.896,238.300 339.916 C 248.709 339.959,247.609 339.960,263.300 339.874 C 270.395 339.835,276.830 339.846,277.600 339.898 C 280.007 340.060,290.408 339.537,290.239 339.262 C 290.150 339.118,290.729 338.952,291.526 338.893 C 292.322 338.835,293.150 338.610,293.367 338.393 C 293.583 338.177,294.266 338.000,294.885 338.000 C 295.504 338.000,296.323 337.832,296.705 337.626 C 297.087 337.421,297.972 337.022,298.671 336.741 C 299.370 336.460,299.855 336.088,299.748 335.915 C 299.640 335.742,299.844 335.600,300.200 335.600 C 300.559 335.600,300.729 335.791,300.582 336.030 C 300.436 336.266,300.695 336.222,301.158 335.933 C 301.621 335.644,302.000 335.271,302.000 335.104 C 302.000 334.937,302.500 334.800,303.112 334.800 C 303.765 334.800,304.461 334.470,304.800 334.000 C 305.117 333.560,305.682 333.200,306.055 333.200 C 306.428 333.200,306.793 333.065,306.867 332.900 C 306.940 332.735,307.540 332.293,308.200 331.918 C 308.860 331.543,309.359 331.003,309.308 330.718 C 309.257 330.433,309.662 329.992,310.208 329.737 C 310.754 329.483,311.100 329.438,310.977 329.637 C 310.854 329.837,310.943 330.000,311.176 330.000 C 311.409 330.000,311.600 329.640,311.600 329.200 C 311.600 328.760,311.791 328.400,312.024 328.400 C 312.257 328.400,312.319 328.608,312.162 328.862 C 311.979 329.157,312.053 329.215,312.365 329.021 C 312.634 328.855,312.758 328.467,312.640 328.160 C 312.502 327.801,312.698 327.600,313.186 327.600 C 313.604 327.600,314.060 327.240,314.200 326.800 C 314.340 326.360,314.640 326.000,314.866 326.000 C 315.093 326.000,315.762 325.505,316.352 324.900 C 316.942 324.295,317.779 323.592,318.212 323.337 C 318.645 323.083,318.955 322.678,318.900 322.437 C 318.845 322.197,319.018 322.045,319.285 322.100 C 319.552 322.155,319.955 321.795,320.180 321.300 C 320.405 320.805,320.727 320.400,320.895 320.400 C 321.063 320.400,321.200 320.040,321.200 319.600 C 321.200 319.148,321.467 318.800,321.813 318.800 C 322.149 318.800,322.542 318.485,322.685 318.100 C 322.828 317.715,323.272 317.109,323.672 316.753 C 324.073 316.397,324.400 315.632,324.400 315.053 C 324.400 314.403,324.620 314.000,324.976 314.000 C 325.293 314.000,325.681 313.792,325.838 313.538 C 326.015 313.252,325.948 313.185,325.662 313.362 C 325.385 313.533,325.200 313.387,325.200 313.000 C 325.200 312.644,325.360 312.451,325.555 312.572 C 325.750 312.693,326.155 312.489,326.455 312.119 C 326.830 311.656,326.844 311.540,326.500 311.747 C 325.852 312.136,325.852 311.274,326.500 309.900 C 326.775 309.318,327.360 308.742,327.800 308.621 C 328.458 308.439,328.498 308.334,328.021 308.028 C 327.543 307.720,327.612 307.515,328.421 306.841 C 328.960 306.393,329.175 306.021,328.900 306.013 C 328.625 306.006,328.400 305.629,328.400 305.176 C 328.400 304.723,328.538 304.438,328.707 304.542 C 328.875 304.646,329.218 304.297,329.469 303.766 C 329.720 303.235,329.762 302.800,329.562 302.800 C 329.015 302.800,329.128 300.491,329.685 300.305 C 329.996 300.201,330.129 299.472,330.055 298.272 C 329.991 297.242,330.112 296.400,330.323 296.400 C 330.534 296.400,330.818 296.085,330.954 295.700 C 331.089 295.315,331.304 294.730,331.431 294.400 C 331.635 293.867,331.614 293.867,331.237 294.400 C 330.913 294.858,330.811 294.544,330.806 293.076 C 330.803 292.018,330.960 291.252,331.156 291.373 C 331.597 291.645,331.675 287.714,331.792 259.200 C 331.843 246.770,332.025 234.409,332.197 231.731 C 332.369 229.054,332.364 226.534,332.187 226.131 C 331.752 225.146,331.637 208.824,332.063 208.561 C 332.248 208.446,332.382 207.958,332.360 207.476 C 332.323 206.661,332.298 206.669,332.000 207.600 C 331.804 208.210,331.690 206.730,331.707 203.800 C 331.730 199.776,331.782 199.388,332.026 201.400 C 332.325 203.864,332.278 201.775,331.800 191.400 C 331.689 188.980,331.733 187.305,331.899 187.677 C 332.064 188.050,332.204 185.980,332.209 183.077 C 332.214 180.175,332.101 178.340,331.957 179.000 C 331.799 179.721,331.676 178.715,331.647 176.476 C 331.614 173.845,331.730 172.833,332.043 173.026 C 332.348 173.215,332.391 173.005,332.181 172.350 C 332.014 171.828,331.853 168.709,331.825 165.419 C 331.796 162.130,331.896 159.880,332.047 160.419 C 332.302 161.335,332.323 161.342,332.360 160.524 C 332.382 160.042,332.232 159.543,332.026 159.416 C 331.820 159.289,331.652 156.852,331.652 154.000 C 331.652 151.148,331.820 148.711,332.026 148.584 C 332.232 148.457,332.382 147.958,332.360 147.476 C 332.321 146.610,332.317 146.611,332.060 147.519 C 331.758 148.585,331.788 129.960,332.094 125.800 C 332.240 123.827,332.224 123.650,332.039 125.200 C 331.896 126.410,331.798 123.288,331.822 118.262 C 331.856 111.309,331.743 109.001,331.353 108.610 C 330.547 107.804,330.315 106.277,330.803 104.993 C 331.049 104.346,331.120 103.946,330.962 104.105 C 330.338 104.728,329.781 103.574,329.934 101.975 C 330.049 100.765,330.199 100.455,330.477 100.852 C 330.790 101.299,330.829 101.290,330.689 100.800 C 330.594 100.470,330.221 100.253,329.859 100.318 C 329.349 100.408,329.200 100.114,329.200 99.018 C 329.200 98.238,329.020 97.600,328.800 97.600 C 328.580 97.600,328.394 97.285,328.387 96.900 C 328.380 96.515,328.116 95.858,327.800 95.441 C 327.484 95.024,327.328 94.517,327.453 94.314 C 327.578 94.112,327.406 93.734,327.072 93.473 C 326.044 92.674,324.842 90.125,325.074 89.237 C 325.200 88.757,325.103 88.400,324.847 88.400 C 324.601 88.400,324.400 88.029,324.400 87.576 C 324.400 87.123,324.220 86.864,324.000 87.000 C 323.762 87.147,323.600 86.671,323.600 85.824 C 323.600 85.041,323.420 84.400,323.200 84.400 C 322.980 84.400,322.800 84.124,322.800 83.787 C 322.800 83.451,322.485 83.056,322.100 82.910 C 321.177 82.560,320.207 81.600,320.777 81.600 C 321.016 81.600,320.028 80.429,318.583 78.998 C 317.138 77.567,316.066 76.217,316.201 75.998 C 316.337 75.779,316.257 75.600,316.024 75.600 C 315.791 75.600,315.600 75.341,315.600 75.024 C 315.600 74.707,315.422 74.337,315.205 74.203 C 314.978 74.063,314.911 74.223,315.047 74.579 C 315.496 75.749,309.988 72.402,308.221 70.431 C 307.793 69.954,306.872 69.292,306.175 68.961 C 305.478 68.631,304.531 68.009,304.071 67.580 C 303.610 67.151,302.956 66.800,302.617 66.800 C 302.278 66.800,302.000 66.620,302.000 66.400 C 302.000 66.180,301.659 66.000,301.243 66.000 C 300.826 66.000,300.391 65.752,300.274 65.449 C 300.136 65.089,299.685 64.971,298.966 65.109 C 298.076 65.279,297.916 65.196,298.117 64.672 C 298.253 64.316,298.165 63.902,297.921 63.751 C 297.652 63.585,297.589 63.659,297.762 63.938 C 297.949 64.241,297.695 64.400,297.024 64.400 C 296.461 64.400,296.000 64.198,296.000 63.950 C 296.000 63.666,295.569 63.586,294.835 63.733 C 294.066 63.887,293.505 63.768,293.186 63.383 C 292.920 63.062,292.173 62.800,291.527 62.800 C 290.846 62.800,290.457 62.632,290.600 62.400 C 290.749 62.159,290.215 62.000,289.257 62.000 C 288.382 62.000,287.598 61.795,287.515 61.546 C 287.416 61.248,286.199 61.111,283.982 61.150 C 281.620 61.191,280.781 61.088,281.200 60.810 C 281.600 60.545,269.799 60.432,245.800 60.471 C 226.000 60.504,210.700 60.653,211.800 60.802 C 213.056 60.973,211.569 61.070,207.800 61.064 C 202.956 61.055,202.416 61.005,205.000 60.800 C 206.760 60.661,200.280 60.550,190.600 60.554 C 180.920 60.558,175.160 60.669,177.800 60.800 C 182.062 61.012,181.725 61.041,174.800 61.057 C 170.386 61.067,167.868 60.955,169.000 60.800 C 170.100 60.649,164.880 60.521,157.400 60.515 C 149.920 60.510,144.430 60.638,145.200 60.800 C 145.987 60.966,143.095 61.105,138.600 61.119 C 133.808 61.134,130.921 61.006,131.400 60.800 C 131.890 60.589,129.723 60.456,125.800 60.456 C 121.877 60.456,119.710 60.589,120.200 60.800 C 120.714 61.021,119.426 61.152,116.600 61.166 C 113.621 61.181,112.394 61.063,112.800 60.800 C 113.161 60.567,113.210 60.410,112.924 60.406 C 112.662 60.403,112.334 60.583,112.196 60.807 M274.800 87.589 C 289.025 87.945,288.932 87.930,293.400 90.612 C 304.087 97.030,302.914 111.094,291.305 115.729 C 286.371 117.699,288.046 117.652,228.400 117.522 C 181.703 117.420,172.143 117.492,169.800 117.962 C 165.185 118.889,160.069 120.697,156.431 122.688 C 154.544 123.720,152.184 124.974,151.187 125.475 C 145.670 128.244,136.819 138.195,132.577 146.400 C 125.805 159.495,125.106 182.422,131.062 196.065 C 131.798 197.750,132.400 199.307,132.400 199.525 C 132.400 199.742,133.011 200.827,133.758 201.937 C 134.504 203.046,135.669 204.910,136.345 206.077 C 137.022 207.245,138.187 208.838,138.934 209.617 C 139.682 210.396,140.419 211.431,140.574 211.917 C 140.728 212.403,141.484 213.281,142.253 213.868 C 143.359 214.711,143.604 215.131,143.419 215.868 C 143.290 216.380,143.323 216.801,143.492 216.801 C 143.662 216.802,144.153 217.329,144.584 217.973 C 145.015 218.616,145.555 219.024,145.784 218.878 C 146.857 218.193,148.714 218.638,150.921 220.110 C 154.664 222.607,158.824 224.624,161.400 225.191 C 162.720 225.482,164.790 225.966,166.000 226.268 C 171.467 227.632,175.447 227.702,230.600 227.407 C 260.520 227.247,286.119 227.123,287.487 227.132 C 290.631 227.150,295.618 229.566,297.848 232.151 C 304.714 240.111,299.852 252.282,288.327 255.984 C 285.104 257.019,162.630 257.483,158.400 256.476 C 148.292 254.070,145.789 253.176,138.529 249.383 C 125.491 242.571,113.501 231.948,108.427 222.714 C 107.788 221.551,106.652 219.582,105.902 218.339 C 104.470 215.963,101.927 210.917,100.289 207.200 C 99.336 205.038,98.826 203.183,96.442 193.200 C 93.348 180.248,93.661 159.992,97.160 146.800 C 100.508 134.173,101.748 131.108,106.463 123.800 C 107.456 122.260,108.903 120.010,109.679 118.800 C 111.618 115.773,116.793 110.153,120.400 107.155 C 122.050 105.784,124.399 103.748,125.619 102.631 C 128.820 99.702,143.996 91.200,146.024 91.200 C 146.395 91.200,147.487 90.913,148.450 90.561 C 150.505 89.811,155.283 88.552,158.400 87.939 C 163.495 86.937,239.582 86.708,274.800 87.589 M228.088 120.251 C 229.571 120.672,231.209 131.648,230.402 135.753 C 229.628 139.686,225.677 146.110,222.832 148.059 L 221.461 148.998 203.030 149.289 C 180.541 149.643,179.427 149.839,173.576 154.452 C 167.002 159.637,164.600 164.226,164.600 171.600 C 164.600 186.901,176.934 196.804,194.800 195.847 C 197.330 195.711,209.390 195.506,221.600 195.391 C 293.404 194.714,288.161 194.592,293.105 197.063 C 302.451 201.734,304.088 213.315,296.327 219.844 C 290.725 224.556,289.638 224.748,267.200 224.992 C 219.455 225.510,175.893 225.591,173.092 225.167 C 158.479 222.952,145.899 214.812,138.526 202.800 C 135.917 198.549,135.470 197.702,134.410 195.000 C 133.893 193.680,133.337 192.420,133.174 192.200 C 132.661 191.504,130.735 185.504,130.156 182.800 C 129.508 179.769,129.385 166.496,129.982 163.877 C 132.387 153.317,134.057 148.652,136.828 144.761 C 137.252 144.165,137.600 143.575,137.600 143.451 C 137.600 143.121,143.461 135.632,144.940 134.070 C 148.301 130.524,154.220 126.756,161.400 123.593 C 162.668 123.034,166.070 121.927,167.600 121.575 C 168.370 121.398,169.720 121.033,170.600 120.763 C 173.594 119.846,225.044 119.387,228.088 120.251 M278.799 139.812 L 280.200 141.213 280.276 148.637 C 280.373 158.086,279.611 157.282,288.374 157.177 C 292.614 157.125,295.816 157.260,296.449 157.517 C 298.663 158.413,299.928 162.332,298.700 164.490 C 297.247 167.045,296.648 167.200,288.240 167.200 C 279.327 167.200,280.100 166.467,280.123 174.900 C 280.139 180.962,280.105 181.237,279.206 182.194 C 277.479 184.032,273.824 184.010,271.612 182.149 L 270.400 181.129 270.400 174.938 C 270.400 166.521,271.121 167.200,262.180 167.200 L 254.788 167.200 253.355 165.886 C 251.609 164.287,251.148 161.857,252.139 159.485 C 253.063 157.272,254.000 157.032,262.600 156.802 L 270.200 156.600 270.309 148.616 C 270.413 140.991,270.457 140.590,271.309 139.673 C 273.331 137.494,276.540 137.554,278.799 139.812 M65.314 151.400 C 65.317 152.500,65.395 152.903,65.487 152.295 C 65.579 151.686,65.577 150.786,65.482 150.295 C 65.387 149.803,65.311 150.300,65.314 151.400 M65.346 167.000 C 65.347 169.200,65.414 170.049,65.495 168.887 C 65.576 167.724,65.576 165.924,65.493 164.887 C 65.411 163.849,65.345 164.800,65.346 167.000 M65.293 174.400 C 65.293 175.170,65.375 175.485,65.476 175.100 C 65.576 174.715,65.576 174.085,65.476 173.700 C 65.375 173.315,65.293 173.630,65.293 174.400 M332.093 175.200 C 332.093 175.970,332.175 176.285,332.276 175.900 C 332.376 175.515,332.376 174.885,332.276 174.500 C 332.175 174.115,332.093 174.430,332.093 175.200 M65.314 177.800 C 65.317 178.900,65.395 179.303,65.487 178.695 C 65.579 178.086,65.577 177.186,65.482 176.695 C 65.387 176.203,65.311 176.700,65.314 177.800 M65.340 193.200 C 65.340 195.070,65.409 195.835,65.493 194.900 C 65.577 193.965,65.577 192.435,65.493 191.500 C 65.409 190.565,65.340 191.330,65.340 193.200 M65.355 203.000 C 65.356 205.860,65.420 206.978,65.497 205.483 C 65.574 203.989,65.574 201.649,65.496 200.283 C 65.418 198.918,65.355 200.140,65.355 203.000 M331.893 230.489 C 331.809 231.430,331.739 230.760,331.737 229.000 C 331.736 227.240,331.805 226.470,331.891 227.289 C 331.977 228.109,331.978 229.549,331.893 230.489 M65.293 238.000 C 65.293 238.770,65.375 239.085,65.476 238.700 C 65.576 238.315,65.576 237.685,65.476 237.300 C 65.375 236.915,65.293 237.230,65.293 238.000 M332.128 243.600 C 332.128 245.030,332.201 245.615,332.289 244.900 C 332.378 244.185,332.378 243.015,332.289 242.300 C 332.201 241.585,332.128 242.170,332.128 243.600 M65.375 258.400 C 65.375 264.230,65.431 266.615,65.499 263.700 C 65.567 260.785,65.567 256.015,65.499 253.100 C 65.431 250.185,65.375 252.570,65.375 258.400 M332.093 269.600 C 332.093 270.370,332.175 270.685,332.276 270.300 C 332.376 269.915,332.376 269.285,332.276 268.900 C 332.175 268.515,332.093 268.830,332.093 269.600 M134.608 270.923 C 137.512 273.735,137.636 275.338,135.166 278.144 C 130.812 283.090,122.670 276.844,126.283 271.330 C 128.388 268.116,131.551 267.962,134.608 270.923 M260.296 269.846 C 263.125 272.004,263.949 274.967,262.418 277.478 C 260.100 281.279,254.636 280.976,252.955 276.953 C 250.821 271.847,256.152 266.686,260.296 269.846 M65.293 279.200 C 65.293 279.970,65.375 280.285,65.476 279.900 C 65.576 279.515,65.576 278.885,65.476 278.500 C 65.375 278.115,65.293 278.430,65.293 279.200 M313.758 281.434 C 313.892 281.783,314.116 283.043,314.256 284.234 L 314.510 286.400 317.628 286.400 C 321.080 286.400,321.280 286.565,321.280 289.415 C 321.280 291.448,321.023 291.600,317.576 291.600 L 314.400 291.600 314.400 294.200 L 314.400 296.800 312.247 296.800 C 309.855 296.800,309.616 296.504,309.605 293.524 L 309.600 292.048 306.838 291.776 C 303.770 291.474,303.533 291.154,303.919 287.842 L 304.088 286.400 306.844 286.400 L 309.600 286.400 309.600 283.600 L 309.600 280.800 311.557 280.800 C 312.975 280.800,313.582 280.975,313.758 281.434 M111.017 283.747 C 115.460 284.930,122.233 290.387,121.922 292.533 C 121.526 295.263,116.707 296.025,114.078 293.774 C 106.190 287.022,95.825 296.146,100.913 305.362 C 103.545 310.129,110.855 310.476,114.399 306.002 C 115.870 304.144,117.285 304.095,120.006 305.807 C 122.594 307.435,122.667 307.718,121.149 310.245 C 112.437 324.743,90.306 317.420,90.414 300.075 C 90.482 289.215,100.811 281.029,111.017 283.747 M166.073 284.009 C 170.257 285.183,174.005 289.516,174.753 294.044 C 175.336 297.578,175.344 313.868,174.763 315.535 C 173.977 317.790,169.081 318.280,166.628 316.351 L 165.600 315.542 165.600 305.585 C 165.600 297.111,165.501 295.419,164.932 294.227 C 162.863 289.887,154.911 290.681,152.449 295.474 C 152.153 296.050,152.000 299.689,152.000 306.151 C 152.000 317.659,152.185 317.200,147.555 317.200 C 142.556 317.200,142.445 316.771,142.418 297.314 C 142.397 282.817,141.982 284.000,147.094 284.000 C 150.698 284.000,151.200 284.303,151.200 286.480 C 151.200 288.278,151.303 288.312,152.717 286.982 C 156.292 283.619,160.971 282.578,166.073 284.009 M200.040 283.634 C 203.431 284.716,208.800 288.706,208.800 290.145 C 208.800 290.367,209.137 290.920,209.550 291.374 C 210.906 292.869,212.000 296.602,212.000 299.739 C 212.000 304.431,212.739 304.170,200.258 303.887 L 189.600 303.645 189.600 304.568 C 189.600 305.971,191.754 308.479,194.167 309.886 C 196.350 311.159,201.944 310.051,203.823 307.974 C 205.439 306.189,211.207 307.673,210.569 309.709 C 207.021 321.043,189.780 320.701,182.368 309.150 C 177.134 300.993,180.731 288.851,189.550 284.905 C 193.531 283.124,197.090 282.693,200.040 283.634 M287.280 283.640 C 295.313 285.306,302.370 295.961,299.546 302.159 C 298.835 303.718,298.434 303.778,287.200 303.995 C 275.426 304.223,275.594 304.172,277.736 306.834 C 281.037 310.937,288.341 311.645,291.248 308.142 C 294.165 304.627,299.873 308.082,297.461 311.903 C 291.235 321.766,276.042 319.972,269.200 308.565 L 267.800 306.231 267.815 301.016 C 267.848 289.299,276.657 281.436,287.280 283.640 M221.751 284.237 C 222.338 284.462,225.600 292.133,225.600 293.287 C 225.600 293.588,226.390 295.807,227.355 298.217 C 228.320 300.628,229.433 303.635,229.828 304.900 C 230.765 307.901,230.770 307.897,232.379 302.890 C 233.822 298.401,233.954 298.038,237.057 290.050 C 239.413 283.986,239.481 283.931,244.454 284.084 L 248.200 284.200 248.151 285.400 C 248.123 286.060,247.718 287.455,247.251 288.500 C 245.071 293.368,244.800 294.012,244.800 294.321 C 244.800 294.502,244.463 295.359,244.051 296.225 C 243.639 297.091,242.910 298.970,242.432 300.400 C 241.954 301.830,241.391 303.313,241.181 303.695 C 240.971 304.077,240.800 304.583,240.800 304.820 C 240.800 305.057,240.279 306.364,239.642 307.725 C 239.005 309.086,237.974 311.536,237.352 313.168 C 235.732 317.416,235.458 317.600,230.734 317.600 C 226.352 317.600,226.231 317.526,225.182 314.200 C 224.639 312.480,224.144 311.231,222.882 308.400 C 222.441 307.410,221.320 304.800,220.390 302.600 C 219.461 300.400,218.273 297.650,217.750 296.488 C 217.228 295.327,216.800 294.309,216.800 294.228 C 216.800 294.146,216.090 292.556,215.221 290.694 C 212.286 284.399,212.429 284.000,217.616 284.000 C 219.551 284.000,221.412 284.106,221.751 284.237 M135.367 284.643 C 136.312 285.005,136.331 315.628,135.387 316.411 C 133.891 317.653,128.778 317.219,127.556 315.747 C 126.707 314.724,126.719 285.291,127.568 284.794 C 128.273 284.382,134.378 284.263,135.367 284.643 M261.602 285.300 C 261.603 285.575,261.670 292.510,261.751 300.710 C 261.926 318.317,262.087 317.600,257.945 317.600 C 252.750 317.600,252.800 317.771,252.800 299.887 C 252.800 291.882,252.920 285.213,253.067 285.067 C 253.590 284.544,261.600 284.763,261.602 285.300 M192.808 291.901 C 191.227 292.695,189.509 295.005,189.683 296.101 C 189.788 296.761,190.365 296.855,195.400 297.035 C 198.480 297.145,201.630 297.272,202.400 297.317 C 204.425 297.437,204.528 295.961,202.649 293.765 C 200.493 291.247,195.857 290.369,192.808 291.901 M280.421 291.759 C 278.898 292.309,276.984 294.441,276.603 296.012 L 276.358 297.023 283.679 296.944 C 291.934 296.855,292.159 296.754,290.309 293.984 C 288.580 291.396,284.172 290.404,280.421 291.759 M174.105 339.882 C 173.614 339.977,172.714 339.979,172.105 339.887 C 171.497 339.795,171.900 339.717,173.000 339.714 C 174.100 339.711,174.597 339.787,174.105 339.882 " stroke="none" fill="#16242e" fill-rule="evenodd"></path><path id="path3" d="M65.331 138.200 C 65.333 139.740,65.405 140.321,65.492 139.491 C 65.579 138.661,65.577 137.401,65.489 136.691 C 65.400 135.981,65.329 136.660,65.331 138.200 M272.114 139.751 C 270.394 141.327,270.346 141.724,270.840 150.400 C 271.280 158.130,271.930 157.600,262.011 157.600 L 254.041 157.600 253.020 158.938 C 251.700 160.669,251.655 162.970,252.904 164.824 C 254.114 166.619,254.733 166.729,262.400 166.507 C 271.166 166.252,270.545 165.689,270.727 174.062 C 270.880 181.128,270.975 181.450,273.279 182.641 C 275.377 183.726,278.641 182.992,279.588 181.222 C 279.823 180.784,280.000 177.616,280.000 173.857 L 280.000 167.262 281.383 166.806 C 282.257 166.517,285.291 166.387,289.638 166.451 L 296.510 166.552 297.437 165.475 C 299.298 163.311,299.050 160.084,296.892 158.386 C 295.979 157.668,295.244 157.600,288.426 157.600 C 279.179 157.600,280.000 158.397,279.999 149.420 C 279.997 141.273,279.729 140.322,277.087 139.068 C 274.969 138.063,273.777 138.227,272.114 139.751 M65.320 147.200 C 65.320 148.410,65.395 148.905,65.487 148.300 C 65.578 147.695,65.578 146.705,65.487 146.100 C 65.395 145.495,65.320 145.990,65.320 147.200 M65.293 162.000 C 65.293 162.770,65.375 163.085,65.476 162.700 C 65.576 162.315,65.576 161.685,65.476 161.300 C 65.375 160.915,65.293 161.230,65.293 162.000 M65.293 180.800 C 65.293 181.570,65.375 181.885,65.476 181.500 C 65.576 181.115,65.576 180.485,65.476 180.100 C 65.375 179.715,65.293 180.030,65.293 180.800 M65.314 243.800 C 65.317 244.900,65.395 245.303,65.487 244.695 C 65.579 244.086,65.577 243.186,65.482 242.695 C 65.387 242.203,65.311 242.700,65.314 243.800 M129.200 269.634 C 124.180 271.712,124.881 277.681,130.365 279.541 C 132.831 280.377,135.761 278.209,136.243 275.191 C 136.762 271.939,132.244 268.375,129.200 269.634 M309.937 281.055 C 309.902 281.245,309.857 282.570,309.837 284.000 L 309.800 286.600 307.000 286.800 L 304.200 287.000 304.200 289.000 L 304.200 291.000 306.594 291.123 C 309.648 291.279,310.326 291.875,310.481 294.541 C 310.708 298.456,314.000 297.771,314.000 293.809 L 314.000 291.232 317.300 291.116 L 320.600 291.000 320.720 289.154 C 320.855 287.066,320.371 286.800,316.430 286.800 C 314.043 286.800,313.600 286.321,313.600 283.744 C 313.600 282.591,313.464 281.563,313.297 281.460 C 312.633 281.050,309.996 280.732,309.937 281.055 M105.200 283.985 C 84.909 287.120,87.072 317.555,107.589 317.596 C 115.227 317.611,124.609 309.437,120.297 306.523 C 117.213 304.439,115.888 304.448,114.520 306.565 C 111.189 311.722,101.621 310.007,99.816 303.930 C 96.784 293.718,106.371 287.020,114.600 293.602 C 117.388 295.832,122.603 294.421,121.208 291.815 C 118.474 286.706,111.060 283.080,105.200 283.985 M193.400 283.991 C 181.995 286.473,176.753 299.828,183.307 309.705 C 189.621 319.220,203.339 320.400,208.832 311.903 C 210.740 308.950,210.742 308.902,209.013 308.180 C 206.806 307.258,205.106 307.444,203.407 308.794 C 198.689 312.544,191.664 310.881,189.408 305.482 C 188.407 303.086,188.253 303.116,199.996 303.429 L 210.710 303.715 211.207 302.786 C 211.542 302.162,211.633 300.864,211.486 298.829 C 210.793 289.217,202.112 282.095,193.400 283.991 M157.400 284.454 C 156.740 284.694,155.165 285.680,153.899 286.645 C 151.061 288.811,150.876 288.814,150.723 286.700 L 150.600 285.000 146.948 284.886 C 144.237 284.801,143.258 284.904,143.148 285.286 C 142.501 287.532,143.302 315.159,144.038 315.949 C 145.614 317.641,151.575 316.950,151.608 315.071 C 151.613 314.812,151.658 310.266,151.708 304.968 L 151.800 295.337 152.924 293.864 C 155.866 290.008,163.762 290.218,165.424 294.196 C 165.872 295.268,166.000 297.752,166.000 305.387 C 166.000 317.189,165.846 316.800,170.520 316.800 C 174.650 316.800,174.400 317.604,174.400 304.304 C 174.400 291.328,174.398 291.315,171.198 287.844 C 168.216 284.609,161.509 282.961,157.400 284.454 M278.232 284.823 C 269.311 288.209,264.911 301.474,270.146 309.200 C 276.569 318.680,288.483 320.569,295.787 313.266 C 300.129 308.923,296.392 305.269,291.173 308.755 C 285.724 312.393,279.453 311.175,276.618 305.927 C 275.182 303.267,275.362 303.224,287.419 303.318 C 300.096 303.417,299.412 303.682,299.376 298.684 C 299.304 288.552,287.974 281.125,278.232 284.823 M215.100 284.691 C 212.918 284.920,212.494 283.540,219.993 300.600 C 222.024 305.220,224.226 310.530,224.887 312.400 C 226.570 317.161,226.618 317.200,230.818 317.200 C 235.127 317.200,235.483 316.941,237.144 312.600 C 237.817 310.840,239.095 307.732,239.984 305.694 C 240.873 303.655,241.600 301.728,241.600 301.411 C 241.600 301.095,242.383 298.983,243.341 296.718 C 246.997 288.072,248.112 285.178,247.878 284.945 C 247.543 284.610,239.863 284.770,239.555 285.118 C 238.990 285.755,233.479 300.593,231.612 306.500 C 230.866 308.862,230.533 308.536,229.059 304.000 C 228.738 303.010,227.897 300.760,227.191 299.000 C 226.485 297.240,225.589 294.720,225.201 293.400 C 222.549 284.379,222.067 283.963,215.100 284.691 M127.480 285.053 C 127.326 285.207,127.200 291.887,127.200 299.897 L 127.200 314.462 128.369 315.631 C 129.402 316.663,129.819 316.800,131.941 316.800 C 135.891 316.800,135.660 317.867,135.521 300.251 L 135.400 285.000 131.580 284.886 C 129.479 284.824,127.634 284.899,127.480 285.053 M253.368 285.738 C 252.817 287.175,253.403 315.082,254.000 315.801 C 255.571 317.694,259.733 317.866,261.100 316.095 C 261.626 315.413,261.866 287.159,261.357 285.833 C 261.029 284.977,253.694 284.890,253.368 285.738 M201.683 292.208 C 203.240 293.238,204.400 295.193,204.400 296.787 C 204.400 297.786,189.431 298.094,189.101 297.102 C 188.521 295.362,191.377 291.428,193.485 291.063 C 196.178 290.598,200.072 291.141,201.683 292.208 M289.423 292.191 C 290.789 293.232,291.887 295.875,291.439 297.042 C 291.021 298.131,276.000 297.832,276.000 296.735 C 276.000 291.850,284.987 288.807,289.423 292.191 " stroke="none" fill="#f6f8f9" fill-rule="evenodd"></path><path id="path4" d="M113.400 60.831 C 112.689 60.993,113.979 61.125,116.567 61.153 C 118.968 61.179,120.815 61.082,120.671 60.937 C 120.308 60.575,114.868 60.495,113.400 60.831 M131.400 60.772 C 130.874 61.016,133.333 61.153,138.567 61.172 C 142.948 61.187,146.425 61.092,146.293 60.959 C 145.883 60.550,132.248 60.378,131.400 60.772 M169.000 60.827 C 167.900 60.963,170.510 61.088,174.800 61.106 C 179.090 61.123,182.420 61.075,182.200 61.000 C 181.393 60.725,170.939 60.588,169.000 60.827 M205.000 60.800 C 202.245 61.018,202.629 61.063,207.767 61.127 C 211.048 61.167,213.658 61.135,213.567 61.055 C 213.183 60.720,207.967 60.565,205.000 60.800 M281.170 60.827 C 280.796 61.064,281.469 61.190,283.124 61.194 C 284.553 61.197,285.549 61.041,285.421 60.833 C 285.129 60.361,281.914 60.356,281.170 60.827 M107.800 61.600 C 107.651 61.842,108.196 62.000,109.176 62.000 C 110.069 62.000,110.800 61.820,110.800 61.600 C 110.800 61.380,110.181 61.200,109.424 61.200 C 108.667 61.200,107.936 61.380,107.800 61.600 M287.600 61.600 C 287.600 61.820,287.971 62.000,288.424 62.000 C 288.877 62.000,289.136 61.820,289.000 61.600 C 288.864 61.380,288.493 61.200,288.176 61.200 C 287.859 61.200,287.600 61.380,287.600 61.600 M104.800 62.400 C 104.800 62.620,105.160 62.800,105.600 62.800 C 106.040 62.800,106.400 62.620,106.400 62.400 C 106.400 62.180,106.040 62.000,105.600 62.000 C 105.160 62.000,104.800 62.180,104.800 62.400 M290.600 62.400 C 290.284 62.911,291.610 62.911,292.400 62.400 C 292.869 62.097,292.766 62.011,291.924 62.006 C 291.332 62.003,290.736 62.180,290.600 62.400 M102.100 63.300 C 102.192 63.575,102.507 63.800,102.800 63.800 C 103.093 63.800,103.408 63.575,103.500 63.300 C 103.599 63.003,103.316 62.800,102.800 62.800 C 102.284 62.800,102.001 63.003,102.100 63.300 M293.294 63.466 C 293.809 63.980,294.086 64.026,294.517 63.669 C 294.823 63.415,295.221 63.340,295.401 63.503 C 295.581 63.667,295.599 63.575,295.441 63.300 C 295.282 63.025,294.585 62.800,293.891 62.800 C 292.713 62.800,292.673 62.845,293.294 63.466 M98.400 64.400 C 97.809 64.862,97.627 65.186,97.956 65.191 C 98.262 65.196,98.768 64.885,99.081 64.500 C 99.475 64.016,99.712 63.947,99.851 64.278 C 100.071 64.801,101.200 64.532,101.200 63.957 C 101.200 63.318,99.425 63.598,98.400 64.400 M296.000 64.000 C 296.000 64.220,296.360 64.400,296.800 64.400 C 297.240 64.400,297.600 64.220,297.600 64.000 C 297.600 63.780,297.240 63.600,296.800 63.600 C 296.360 63.600,296.000 63.780,296.000 64.000 M298.000 64.800 C 298.000 65.020,298.360 65.200,298.800 65.200 C 299.240 65.200,299.600 65.020,299.600 64.800 C 299.600 64.580,299.240 64.400,298.800 64.400 C 298.360 64.400,298.000 64.580,298.000 64.800 M94.800 66.000 C 93.990 66.634,93.933 66.784,94.500 66.791 C 94.885 66.796,95.200 66.620,95.200 66.400 C 95.200 66.180,95.650 66.000,96.200 66.000 C 96.750 66.000,97.200 65.820,97.200 65.600 C 97.200 64.942,95.869 65.163,94.800 66.000 M300.400 65.600 C 300.400 65.820,300.760 66.000,301.200 66.000 C 301.640 66.000,302.000 66.180,302.000 66.400 C 302.000 66.620,302.345 66.800,302.767 66.800 C 303.188 66.800,303.593 66.942,303.667 67.114 C 303.893 67.649,306.433 69.300,306.668 69.066 C 306.789 68.944,307.345 69.387,307.903 70.049 C 309.064 71.429,314.751 75.382,315.089 75.044 C 315.213 74.920,314.721 74.230,313.997 73.510 C 313.273 72.789,312.808 72.425,312.964 72.700 C 313.474 73.601,312.744 73.224,311.595 71.995 C 310.843 71.190,310.402 70.958,310.267 71.295 C 310.152 71.579,310.049 71.465,310.032 71.033 C 310.014 70.612,309.904 70.363,309.786 70.481 C 309.668 70.598,309.019 70.178,308.344 69.547 C 307.668 68.916,306.886 68.400,306.607 68.400 C 306.327 68.400,305.881 68.139,305.616 67.819 C 304.611 66.608,300.400 64.817,300.400 65.600 M89.200 69.224 C 87.990 70.069,86.775 70.770,86.500 70.781 C 86.225 70.791,86.000 70.980,86.000 71.200 C 86.000 71.420,85.724 71.600,85.387 71.600 C 85.050 71.600,84.611 72.005,84.412 72.500 C 84.213 72.995,84.039 73.147,84.025 72.839 C 84.009 72.473,83.709 72.613,83.166 73.239 C 82.708 73.767,82.183 74.200,82.000 74.200 C 81.817 74.200,81.532 74.335,81.367 74.500 C 81.202 74.665,81.414 74.800,81.839 74.800 C 82.766 74.800,86.754 72.186,87.065 71.374 C 87.186 71.058,87.626 70.800,88.043 70.800 C 88.459 70.800,88.800 70.620,88.800 70.400 C 88.800 70.180,89.025 69.999,89.300 69.998 C 90.037 69.995,92.195 68.167,91.766 67.908 C 91.565 67.786,90.410 68.378,89.200 69.224 M316.214 75.977 C 315.972 76.369,319.879 80.654,320.192 80.341 C 320.284 80.249,319.657 79.460,318.799 78.587 C 317.941 77.714,317.230 76.786,317.220 76.524 C 317.193 75.870,316.510 75.499,316.214 75.977 M78.196 78.404 C 77.566 79.062,77.182 79.600,77.343 79.600 C 77.756 79.600,79.722 77.588,79.513 77.380 C 79.419 77.286,78.826 77.746,78.196 78.404 M74.300 83.431 C 74.135 83.597,74.000 83.981,74.000 84.283 C 74.000 84.586,73.640 85.220,73.200 85.692 C 72.760 86.164,72.400 86.787,72.400 87.075 C 72.400 87.364,72.220 87.600,72.000 87.600 C 71.780 87.600,71.600 87.960,71.600 88.400 C 71.600 88.840,71.420 89.200,71.200 89.200 C 70.980 89.200,70.800 89.472,70.800 89.805 C 70.800 90.393,70.633 90.818,69.662 92.695 C 69.408 93.187,69.200 94.232,69.200 95.018 C 69.200 95.804,69.040 96.349,68.845 96.228 C 68.650 96.108,68.397 96.367,68.283 96.804 C 68.169 97.242,68.247 97.600,68.458 97.600 C 69.033 97.600,70.069 94.847,69.806 94.018 C 69.677 93.612,69.801 93.208,70.088 93.098 C 70.788 92.829,74.896 84.584,74.732 83.777 C 74.659 83.420,74.465 83.264,74.300 83.431 M325.016 89.575 C 324.737 90.025,326.515 93.305,327.152 93.517 C 327.915 93.772,327.645 92.609,326.800 92.000 C 326.330 91.661,326.000 90.965,326.000 90.312 C 326.000 89.223,325.475 88.831,325.016 89.575 M327.436 94.341 C 327.320 94.529,327.484 95.024,327.800 95.441 C 328.116 95.858,328.380 96.515,328.387 96.900 C 328.408 98.022,329.200 97.706,329.200 96.576 C 329.200 95.996,329.027 95.660,328.800 95.800 C 328.573 95.940,328.400 95.604,328.400 95.024 C 328.400 94.030,327.864 93.650,327.436 94.341 M329.200 99.133 C 329.200 99.830,329.367 100.400,329.571 100.400 C 330.100 100.400,330.308 101.649,329.949 102.669 C 329.745 103.249,329.836 103.698,330.222 104.018 C 330.967 104.637,330.987 103.043,330.268 100.319 C 329.649 97.973,329.200 97.474,329.200 99.133 M67.357 99.380 C 66.983 100.173,67.023 100.267,67.663 100.099 C 68.068 99.993,68.400 99.668,68.400 99.377 C 68.400 98.439,67.800 98.441,67.357 99.380 M66.832 102.500 C 66.814 103.325,66.980 104.000,67.200 104.000 C 67.420 104.000,67.600 103.745,67.600 103.433 C 67.600 103.121,67.721 102.551,67.868 102.167 C 68.041 101.716,67.982 101.564,67.702 101.737 C 67.464 101.884,67.177 101.779,67.066 101.502 C 66.954 101.226,66.849 101.675,66.832 102.500 M66.267 105.467 C 65.838 105.895,65.960 113.128,66.400 113.400 C 66.657 113.559,66.800 112.137,66.800 109.424 C 66.800 105.205,66.768 104.966,66.267 105.467 M330.437 106.000 C 330.394 106.991,330.869 108.400,331.247 108.400 C 331.441 108.400,331.600 107.849,331.600 107.176 C 331.600 106.503,331.435 106.055,331.234 106.179 C 331.033 106.303,330.777 106.179,330.666 105.902 C 330.526 105.557,330.455 105.588,330.437 106.000 M331.733 112.800 C 331.733 113.740,331.824 113.901,332.087 113.431 C 332.291 113.066,332.291 112.534,332.087 112.169 C 331.824 111.699,331.733 111.860,331.733 112.800 M65.200 119.576 C 65.200 120.443,65.345 121.243,65.523 121.352 C 65.700 121.462,65.835 120.753,65.823 119.777 C 65.810 118.800,65.665 118.001,65.500 118.001 C 65.335 118.000,65.200 118.709,65.200 119.576 M180.000 119.992 C 175.710 120.146,171.480 120.493,170.600 120.763 C 169.720 121.033,168.370 121.398,167.600 121.575 C 166.070 121.927,162.668 123.034,161.400 123.593 C 154.220 126.756,148.301 130.524,144.940 134.070 C 143.461 135.632,137.600 143.121,137.600 143.451 C 137.600 143.575,137.252 144.165,136.828 144.761 C 134.057 148.652,132.387 153.317,129.982 163.877 C 129.385 166.496,129.508 179.769,130.156 182.800 C 130.735 185.504,132.661 191.504,133.174 192.200 C 133.337 192.420,133.893 193.680,134.410 195.000 C 135.470 197.702,135.917 198.549,138.526 202.800 C 142.243 208.856,146.167 212.878,152.482 217.104 C 155.795 219.321,159.729 221.600,160.242 221.600 C 160.432 221.600,159.420 220.917,157.994 220.082 C 145.861 212.982,139.937 206.408,134.487 194.000 C 130.639 185.237,128.926 174.884,130.429 169.471 C 130.662 168.631,131.107 166.021,131.418 163.671 C 132.251 157.365,132.450 156.384,132.843 156.627 C 133.040 156.748,133.200 156.354,133.200 155.752 C 133.200 153.899,134.048 152.182,135.433 151.234 C 136.460 150.530,136.783 149.999,136.878 148.863 C 136.958 147.906,137.208 147.386,137.600 147.361 C 138.990 147.270,139.200 147.171,139.200 146.600 C 139.200 146.266,139.556 146.000,140.004 146.000 C 140.446 146.000,141.391 145.442,142.104 144.759 C 142.817 144.077,144.210 143.048,145.200 142.473 C 146.190 141.898,147.238 141.196,147.529 140.914 C 147.819 140.631,148.269 140.400,148.529 140.399 C 148.788 140.399,149.630 139.859,150.400 139.200 C 151.170 138.541,152.017 138.001,152.282 138.001 C 152.547 138.000,153.428 137.550,154.238 137.000 C 155.049 136.450,155.950 136.000,156.242 136.000 C 156.534 136.000,157.325 135.460,158.000 134.800 C 158.675 134.140,159.571 133.600,159.990 133.600 C 160.410 133.600,160.860 133.426,160.992 133.213 C 161.359 132.619,165.231 130.728,166.800 130.378 C 173.626 128.851,176.207 128.421,176.329 128.788 C 176.526 129.378,179.495 129.301,179.721 128.700 C 179.856 128.339,180.060 128.391,180.454 128.888 C 180.935 129.494,181.760 129.566,187.400 129.488 C 190.920 129.440,193.395 129.458,192.900 129.528 C 192.263 129.618,192.000 129.926,192.000 130.581 C 192.000 131.229,192.270 131.553,192.900 131.661 C 194.440 131.925,195.577 131.605,195.335 130.975 C 195.168 130.540,195.467 130.400,196.557 130.400 C 198.142 130.400,198.533 131.051,197.100 131.303 C 196.203 131.461,196.204 131.463,197.200 131.885 C 198.298 132.351,197.631 132.569,194.000 132.932 C 192.677 133.064,196.674 133.258,203.800 133.406 C 205.560 133.442,208.440 133.671,210.200 133.915 C 214.632 134.527,217.434 134.509,218.080 133.863 C 218.375 133.568,219.018 133.112,219.508 132.849 C 219.999 132.587,220.400 132.112,220.400 131.794 C 220.400 131.475,220.895 131.097,221.500 130.952 C 222.105 130.808,222.817 130.519,223.082 130.310 C 223.348 130.102,223.755 130.049,223.988 130.192 C 224.220 130.336,224.929 130.194,225.564 129.878 C 226.654 129.334,226.742 129.355,227.150 130.251 C 227.388 130.773,227.749 131.200,227.952 131.200 C 228.556 131.200,229.201 133.572,229.191 135.760 C 229.181 138.186,228.260 140.369,226.024 143.270 C 225.121 144.442,224.161 145.692,223.891 146.050 C 222.171 148.324,221.657 148.397,207.200 148.400 C 184.471 148.405,180.293 149.014,174.232 153.204 C 162.289 161.460,160.405 174.952,169.513 186.990 C 173.006 191.607,181.688 196.092,186.862 195.953 L 188.600 195.906 186.400 195.559 C 167.122 192.516,157.575 171.246,169.600 158.132 C 176.899 150.172,178.793 149.671,203.030 149.289 L 221.461 148.998 222.832 148.059 C 225.677 146.110,229.628 139.686,230.402 135.753 C 231.209 131.648,229.571 120.672,228.088 120.251 C 226.883 119.909,188.110 119.701,180.000 119.992 M331.724 125.000 C 331.726 126.320,331.801 126.812,331.890 126.093 C 331.979 125.374,331.977 124.294,331.886 123.693 C 331.795 123.092,331.722 123.680,331.724 125.000 M65.709 126.800 C 65.709 127.790,65.787 128.195,65.882 127.700 C 65.978 127.205,65.978 126.395,65.882 125.900 C 65.787 125.405,65.709 125.810,65.709 126.800 M204.400 132.400 C 204.400 132.620,204.130 132.800,203.800 132.800 C 203.470 132.800,203.200 132.620,203.200 132.400 C 203.200 132.180,203.470 132.000,203.800 132.000 C 204.130 132.000,204.400 132.180,204.400 132.400 M65.200 134.800 C 65.200 135.240,65.341 135.600,65.514 135.600 C 65.687 135.600,65.829 135.240,65.829 134.800 C 65.829 134.360,65.687 134.000,65.514 134.000 C 65.341 134.000,65.200 134.360,65.200 134.800 M274.100 138.276 C 274.485 138.376,275.115 138.376,275.500 138.276 C 275.885 138.175,275.570 138.093,274.800 138.093 C 274.030 138.093,273.715 138.175,274.100 138.276 M271.404 139.596 C 270.774 140.254,270.335 140.857,270.429 140.938 C 270.523 141.018,271.190 140.480,271.911 139.742 C 272.633 139.004,273.071 138.400,272.886 138.400 C 272.701 138.400,272.034 138.938,271.404 139.596 M278.275 139.900 C 279.114 140.725,279.878 141.352,279.973 141.294 C 280.226 141.138,277.504 138.400,277.096 138.400 C 276.905 138.400,277.436 139.075,278.275 139.900 M65.701 141.400 C 65.705 142.280,65.787 142.593,65.883 142.095 C 65.979 141.598,65.975 140.878,65.875 140.495 C 65.775 140.113,65.696 140.520,65.701 141.400 M280.162 148.200 C 280.162 151.720,280.224 153.106,280.298 151.281 C 280.372 149.456,280.372 146.576,280.297 144.881 C 280.222 143.186,280.161 144.680,280.162 148.200 M65.734 152.400 C 65.734 154.050,65.805 154.725,65.891 153.900 C 65.978 153.075,65.978 151.725,65.891 150.900 C 65.805 150.075,65.734 150.750,65.734 152.400 M270.383 154.000 L 270.200 156.600 262.532 156.800 C 258.315 156.910,254.715 157.162,254.532 157.359 C 254.339 157.568,254.617 157.612,255.200 157.465 C 255.750 157.325,259.392 157.208,263.292 157.205 C 271.393 157.199,270.998 157.403,270.708 153.373 C 270.568 151.428,270.563 151.437,270.383 154.000 M280.006 155.638 C 279.990 157.356,281.083 157.600,288.798 157.600 C 292.833 157.600,296.012 157.479,295.864 157.331 C 295.716 157.183,292.317 157.048,288.311 157.031 L 281.027 157.000 280.519 156.000 C 280.202 155.375,280.010 155.239,280.006 155.638 M252.911 158.100 C 252.230 158.981,251.917 159.830,252.570 159.024 C 252.917 158.597,253.425 158.104,253.700 157.930 C 254.027 157.722,254.044 157.610,253.749 157.606 C 253.501 157.603,253.124 157.825,252.911 158.100 M297.354 158.663 C 298.612 159.921,298.980 161.138,298.673 163.031 C 298.539 163.852,298.601 164.323,298.824 164.185 C 300.075 163.412,298.228 157.600,296.731 157.600 C 296.489 157.600,296.769 158.078,297.354 158.663 M251.709 162.000 C 251.709 162.990,251.787 163.395,251.882 162.900 C 251.978 162.405,251.978 161.595,251.882 161.100 C 251.787 160.605,251.709 161.010,251.709 162.000 M252.000 164.399 C 252.000 164.574,252.636 165.276,253.414 165.959 L 254.828 167.200 262.194 167.200 C 268.787 167.200,269.603 167.273,269.968 167.900 C 270.330 168.521,270.377 168.526,270.388 167.943 C 270.407 166.909,269.597 166.800,261.927 166.800 L 254.720 166.800 253.360 165.440 C 252.612 164.692,252.000 164.223,252.000 164.399 M65.748 168.800 C 65.748 171.110,65.814 172.055,65.895 170.900 C 65.976 169.745,65.976 167.855,65.895 166.700 C 65.814 165.545,65.748 166.490,65.748 168.800 M288.600 166.800 L 281.000 167.027 288.400 167.107 C 292.648 167.153,296.056 167.023,296.400 166.800 C 296.730 166.587,296.820 166.448,296.600 166.493 C 296.380 166.537,292.780 166.675,288.600 166.800 M280.101 173.000 C 280.105 173.880,280.187 174.193,280.283 173.695 C 280.379 173.198,280.375 172.478,280.275 172.095 C 280.175 171.713,280.096 172.120,280.101 173.000 M65.740 176.400 C 65.740 178.270,65.809 179.035,65.893 178.100 C 65.977 177.165,65.977 175.635,65.893 174.700 C 65.809 173.765,65.740 174.530,65.740 176.400 M331.720 175.600 C 331.720 176.810,331.795 177.305,331.887 176.700 C 331.978 176.095,331.978 175.105,331.887 174.500 C 331.795 173.895,331.720 174.390,331.720 175.600 M65.443 184.100 C 65.315 186.355,65.352 190.180,65.527 192.600 C 65.810 196.531,65.843 196.094,65.840 188.500 C 65.835 178.911,65.776 178.256,65.443 184.100 M270.413 180.630 C 270.399 181.095,271.827 182.498,272.800 182.975 C 273.130 183.137,273.000 182.939,272.512 182.535 C 272.023 182.131,271.354 181.440,271.025 181.000 C 270.695 180.560,270.420 180.394,270.413 180.630 M274.700 183.482 C 275.195 183.578,276.005 183.578,276.500 183.482 C 276.995 183.387,276.590 183.309,275.600 183.309 C 274.610 183.309,274.205 183.387,274.700 183.482 M331.628 188.100 C 331.613 188.705,331.780 189.200,332.000 189.200 C 332.469 189.200,332.469 188.893,332.000 187.800 C 331.695 187.091,331.653 187.125,331.628 188.100 M263.300 195.094 C 264.345 195.176,266.055 195.176,267.100 195.094 C 268.145 195.012,267.290 194.944,265.200 194.944 C 263.110 194.944,262.255 195.012,263.300 195.094 M278.700 195.096 C 280.075 195.174,282.325 195.174,283.700 195.096 C 285.075 195.018,283.950 194.954,281.200 194.954 C 278.450 194.954,277.325 195.018,278.700 195.096 M202.600 195.614 C 197.903 195.754,201.171 195.839,212.000 195.859 C 221.130 195.876,235.170 195.760,243.200 195.600 C 256.709 195.332,256.007 195.314,233.800 195.355 C 220.600 195.380,206.560 195.496,202.600 195.614 M288.000 195.640 C 303.908 199.278,305.211 217.267,290.000 223.254 C 288.997 223.649,288.554 223.969,289.000 223.977 C 290.914 224.010,297.453 219.463,299.124 216.936 C 304.610 208.641,298.364 196.333,288.200 195.410 L 286.200 195.228 288.000 195.640 M65.740 200.800 C 65.740 202.670,65.809 203.435,65.893 202.500 C 65.977 201.565,65.977 200.035,65.893 199.100 C 65.809 198.165,65.740 198.930,65.740 200.800 M331.724 201.400 C 331.726 202.720,331.801 203.212,331.890 202.493 C 331.979 201.774,331.977 200.694,331.886 200.093 C 331.795 199.492,331.722 200.080,331.724 201.400 M65.714 206.200 C 65.717 207.300,65.795 207.703,65.887 207.095 C 65.979 206.486,65.977 205.586,65.882 205.095 C 65.787 204.603,65.711 205.100,65.714 206.200 M65.502 209.400 C 65.607 209.950,65.762 210.400,65.847 210.400 C 65.931 210.400,66.000 209.950,66.000 209.400 C 66.000 208.850,65.845 208.400,65.655 208.400 C 65.466 208.400,65.397 208.850,65.502 209.400 M145.776 218.839 C 145.670 219.011,145.632 220.827,145.691 222.876 C 145.786 226.114,145.696 226.723,145.000 227.545 C 143.524 229.289,140.400 229.998,140.400 228.589 C 140.400 228.296,139.708 227.953,138.815 227.803 C 137.943 227.655,136.537 227.033,135.690 226.419 C 130.893 222.945,127.395 222.453,124.873 224.901 C 123.843 225.900,122.205 227.115,121.233 227.601 C 120.262 228.087,118.883 229.103,118.170 229.859 C 117.077 231.018,116.696 231.190,115.737 230.957 L 114.600 230.680 115.384 231.640 C 120.749 238.209,128.469 244.127,138.529 249.383 C 145.789 253.176,148.292 254.070,158.400 256.476 C 162.630 257.483,285.104 257.019,288.327 255.984 C 299.852 252.282,304.714 240.111,297.848 232.151 C 295.618 229.566,290.631 227.150,287.487 227.132 C 286.119 227.123,260.520 227.247,230.600 227.407 C 175.447 227.702,171.467 227.632,166.000 226.268 C 164.790 225.966,162.720 225.482,161.400 225.191 C 158.822 224.623,154.830 222.691,151.052 220.182 C 148.828 218.705,146.262 218.052,145.776 218.839 M65.247 227.633 C 65.273 232.565,65.428 237.140,65.590 237.800 C 65.752 238.460,65.850 234.544,65.808 229.098 C 65.765 223.653,65.611 219.078,65.465 218.932 C 65.319 218.786,65.221 222.702,65.247 227.633 M163.200 222.800 C 163.530 223.013,164.070 223.188,164.400 223.188 C 164.933 223.188,164.933 223.145,164.400 222.800 C 164.070 222.587,163.530 222.412,163.200 222.412 C 162.667 222.412,162.667 222.455,163.200 222.800 M165.800 223.600 C 166.240 223.789,166.960 223.944,167.400 223.944 L 168.200 223.944 167.400 223.600 C 166.960 223.411,166.240 223.256,165.800 223.256 L 165.000 223.256 165.800 223.600 M131.606 225.703 C 133.039 226.636,135.146 228.120,136.287 229.000 C 141.755 233.214,144.327 234.882,146.800 235.819 C 147.570 236.110,149.460 236.874,151.000 237.516 C 153.996 238.766,158.136 239.492,158.921 238.906 C 159.210 238.690,159.956 238.742,160.800 239.037 C 161.706 239.354,161.988 239.599,161.600 239.731 C 161.270 239.844,160.730 240.027,160.400 240.137 C 160.070 240.247,160.700 240.343,161.800 240.350 C 162.900 240.358,164.340 240.131,165.000 239.847 L 166.200 239.330 164.300 239.041 C 163.255 238.881,162.400 238.571,162.400 238.352 C 162.400 238.132,162.625 238.067,162.900 238.206 C 163.175 238.345,163.088 238.203,162.707 237.891 C 161.630 237.007,163.361 236.342,164.984 237.017 C 166.009 237.443,166.063 237.536,165.384 237.708 C 164.636 237.898,164.638 237.909,165.424 237.954 C 166.362 238.006,168.105 239.167,167.276 239.187 C 166.038 239.217,167.383 240.000,168.673 240.000 C 169.820 240.000,170.011 239.895,169.652 239.463 C 169.119 238.821,169.452 238.400,170.494 238.400 C 171.055 238.400,171.192 238.596,171.016 239.150 C 170.844 239.692,171.014 239.963,171.629 240.123 C 172.097 240.246,172.389 240.493,172.278 240.673 C 172.167 240.853,173.274 241.016,174.738 241.036 C 197.451 241.343,214.089 241.716,220.400 242.060 C 224.690 242.294,228.830 242.476,229.600 242.464 C 231.935 242.427,233.648 242.799,233.351 243.279 C 233.163 243.583,233.643 243.654,234.917 243.510 C 236.211 243.365,236.813 243.457,236.953 243.823 C 237.063 244.109,237.658 244.400,238.276 244.471 C 239.464 244.607,240.324 247.600,239.175 247.600 C 238.825 247.600,238.834 247.759,239.208 248.210 C 239.760 248.875,239.752 248.893,238.636 249.493 C 237.897 249.890,237.901 249.919,238.736 250.366 C 239.971 251.027,239.804 251.530,238.300 251.675 C 236.668 251.832,236.606 252.525,238.200 252.798 C 239.209 252.971,239.420 253.210,239.525 254.302 L 239.651 255.600 237.325 255.633 C 236.046 255.652,234.550 255.758,234.000 255.869 C 233.450 255.981,217.009 256.160,197.464 256.268 C 157.712 256.487,159.214 256.573,149.600 253.517 C 143.467 251.567,128.787 243.920,128.067 242.300 C 127.993 242.135,127.698 242.000,127.411 242.000 C 127.124 242.000,126.059 241.182,125.045 240.181 C 123.270 238.432,122.793 237.600,123.564 237.600 C 124.655 237.600,125.708 233.914,125.497 230.835 C 125.264 227.433,125.484 226.759,127.361 225.116 C 128.912 223.759,128.544 223.709,131.606 225.703 M169.000 224.400 C 169.440 224.589,170.160 224.744,170.600 224.744 L 171.400 224.744 170.600 224.400 C 170.160 224.211,169.440 224.056,169.000 224.056 L 168.200 224.056 169.000 224.400 M283.000 224.400 L 281.000 224.674 283.400 224.690 C 284.720 224.698,286.340 224.568,287.000 224.400 C 288.610 223.990,285.988 223.990,283.000 224.400 M173.800 225.223 C 174.900 225.405,197.040 225.414,223.000 225.243 L 270.200 224.934 221.000 224.914 C 193.916 224.903,172.699 225.042,173.800 225.223 M272.100 225.076 C 272.485 225.176,273.115 225.176,273.500 225.076 C 273.885 224.975,273.570 224.893,272.800 224.893 C 272.030 224.893,271.715 224.975,272.100 225.076 M331.737 229.000 C 331.739 230.760,331.809 231.430,331.893 230.489 C 331.978 229.549,331.977 228.109,331.891 227.289 C 331.805 226.470,331.736 227.240,331.737 229.000 M65.547 240.900 C 65.466 241.395,65.493 249.000,65.607 257.800 L 65.814 273.800 65.907 256.900 C 65.993 241.234,65.932 238.532,65.547 240.900 M331.731 243.800 C 331.733 245.340,331.805 245.921,331.892 245.091 C 331.979 244.261,331.977 243.001,331.889 242.291 C 331.800 241.581,331.729 242.260,331.731 243.800 M331.709 269.600 C 331.709 270.590,331.787 270.995,331.882 270.500 C 331.978 270.005,331.978 269.195,331.882 268.700 C 331.787 268.205,331.709 268.610,331.709 269.600 M128.144 269.569 C 126.773 270.405,126.106 271.200,126.776 271.200 C 127.009 271.200,127.200 271.059,127.200 270.886 C 127.200 270.096,129.729 269.112,131.242 269.315 C 132.124 269.433,132.703 269.367,132.576 269.162 C 132.183 268.525,129.443 268.777,128.144 269.569 M255.296 269.598 C 253.501 270.692,252.391 272.646,252.455 274.600 L 252.507 276.200 252.765 274.365 C 253.106 271.937,253.981 270.691,256.073 269.655 C 257.023 269.185,257.530 268.801,257.200 268.802 C 256.870 268.802,256.013 269.161,255.296 269.598 M259.651 269.946 C 263.703 272.516,263.772 276.803,259.800 279.256 C 259.063 279.711,258.849 279.998,259.246 279.999 C 260.979 280.003,263.201 277.035,263.199 274.720 C 263.196 272.536,260.158 268.800,258.384 268.800 C 258.087 268.800,258.657 269.316,259.651 269.946 M135.855 272.600 C 136.780 274.179,136.800 274.203,136.800 273.711 C 136.800 273.479,136.429 272.864,135.976 272.344 L 135.153 271.400 135.855 272.600 M125.612 275.906 C 125.605 276.184,126.185 277.002,126.900 277.724 C 127.615 278.446,127.819 278.579,127.354 278.019 C 126.888 277.458,126.308 276.640,126.066 276.200 C 125.823 275.760,125.619 275.628,125.612 275.906 M252.800 276.679 C 252.800 278.001,256.112 280.424,257.860 280.382 C 258.267 280.373,257.880 280.112,257.000 279.803 C 256.120 279.494,254.815 278.572,254.100 277.754 C 253.385 276.936,252.800 276.452,252.800 276.679 M134.233 278.617 C 133.372 279.377,132.841 280.000,133.055 280.000 C 133.268 280.000,134.054 279.370,134.800 278.600 C 136.524 276.821,136.258 276.829,134.233 278.617 M65.393 280.535 C 65.242 282.149,65.296 284.444,65.513 285.635 C 65.867 287.579,65.909 287.279,65.924 282.700 C 65.944 276.909,65.791 276.287,65.393 280.535 M313.873 283.800 C 314.149 286.831,314.037 286.738,317.600 286.880 L 320.600 287.000 320.720 289.083 L 320.841 291.167 317.520 291.283 L 314.200 291.400 314.000 294.100 C 313.890 295.586,313.935 296.801,314.100 296.800 C 314.265 296.800,314.400 295.630,314.400 294.200 L 314.400 291.600 317.576 291.600 C 321.023 291.600,321.280 291.448,321.280 289.415 C 321.280 286.557,321.087 286.400,317.573 286.400 L 314.400 286.400 314.353 285.100 C 314.327 284.385,314.159 283.260,313.980 282.600 C 313.764 281.805,313.728 282.211,313.873 283.800 M104.438 283.549 C 103.909 283.697,105.242 283.818,107.400 283.818 C 109.558 283.818,110.891 283.697,110.362 283.549 C 109.833 283.401,108.500 283.280,107.400 283.280 C 106.300 283.280,104.967 283.401,104.438 283.549 M159.400 283.570 C 158.665 283.738,159.595 283.844,161.800 283.844 C 164.005 283.844,164.935 283.738,164.200 283.570 C 163.540 283.418,162.460 283.295,161.800 283.295 C 161.140 283.295,160.060 283.418,159.400 283.570 M192.824 283.552 C 192.287 283.702,193.762 283.819,196.103 283.812 C 198.444 283.806,200.054 283.678,199.680 283.528 C 198.808 283.180,194.099 283.196,192.824 283.552 M281.238 283.549 C 280.709 283.697,282.059 283.817,284.238 283.816 C 286.419 283.814,287.661 283.697,287.000 283.554 C 285.423 283.213,282.447 283.211,281.238 283.549 M101.200 284.400 C 100.667 284.745,100.667 284.788,101.200 284.788 C 101.530 284.788,102.070 284.613,102.400 284.400 C 102.933 284.055,102.933 284.012,102.400 284.012 C 102.070 284.012,101.530 284.187,101.200 284.400 M143.100 284.432 C 142.354 284.867,142.094 306.841,142.767 312.600 C 142.922 313.920,142.965 308.233,142.863 299.963 L 142.679 284.925 143.639 284.668 C 146.432 283.921,150.779 284.450,150.832 285.543 C 150.853 285.978,150.933 286.027,151.069 285.687 C 151.675 284.178,145.268 283.169,143.100 284.432 M213.680 284.480 C 213.416 284.744,213.218 285.329,213.240 285.780 C 213.273 286.467,213.325 286.437,213.557 285.600 C 213.825 284.632,213.958 284.596,217.714 284.486 L 221.594 284.371 222.396 285.686 C 222.836 286.408,223.198 286.853,223.199 286.674 C 223.201 286.158,222.324 284.629,221.840 284.306 C 221.089 283.804,214.209 283.951,213.680 284.480 M239.905 284.422 C 239.523 284.649,239.003 285.232,238.749 285.717 C 238.374 286.437,238.480 286.397,239.325 285.500 C 240.791 283.945,247.368 283.793,248.009 285.300 C 248.386 286.187,248.391 286.185,248.296 285.200 C 248.190 284.096,241.500 283.475,239.905 284.422 M288.800 284.400 C 289.130 284.613,289.670 284.788,290.000 284.788 C 290.533 284.788,290.533 284.745,290.000 284.400 C 289.670 284.187,289.130 284.012,288.800 284.012 C 288.267 284.012,288.267 284.055,288.800 284.400 M131.600 284.777 L 135.400 285.000 135.609 297.200 L 135.818 309.400 135.909 297.143 C 136.014 283.006,136.510 284.361,131.267 284.477 L 127.800 284.553 131.600 284.777 M126.973 285.327 C 126.861 285.617,126.823 287.732,126.888 290.027 L 127.005 294.200 127.203 289.499 C 127.398 284.852,127.367 284.299,126.973 285.327 M202.833 284.916 C 202.925 284.980,203.720 285.533,204.600 286.145 L 206.200 287.258 204.815 286.029 C 204.053 285.353,203.258 284.800,203.048 284.800 C 202.838 284.800,202.742 284.852,202.833 284.916 M152.656 287.009 C 151.807 287.774,151.276 288.400,151.477 288.400 C 151.679 288.400,152.454 287.770,153.200 287.000 C 154.936 285.209,154.649 285.214,152.656 287.009 M185.870 287.222 C 184.856 288.115,183.476 289.690,182.802 290.722 C 182.129 291.755,181.988 292.076,182.489 291.435 C 182.990 290.794,184.448 289.219,185.728 287.935 C 188.438 285.218,188.499 284.908,185.870 287.222 M274.175 286.900 L 273.000 288.200 274.300 287.025 C 275.015 286.379,275.600 285.794,275.600 285.725 C 275.600 285.416,275.270 285.688,274.175 286.900 M293.519 287.007 C 294.464 287.826,295.679 289.147,296.219 289.942 C 296.758 290.736,297.200 291.164,297.200 290.894 C 297.200 290.235,294.581 287.370,293.038 286.341 C 292.272 285.830,292.455 286.084,293.519 287.007 M119.069 288.897 C 120.351 290.380,121.517 292.000,121.660 292.497 C 121.900 293.329,121.923 293.336,121.960 292.581 C 121.984 292.087,120.959 290.662,119.369 288.981 L 116.738 286.200 119.069 288.897 M94.429 289.062 C 93.528 290.086,92.896 291.029,93.025 291.158 C 93.154 291.288,93.442 291.069,93.663 290.673 C 93.885 290.276,94.610 289.333,95.275 288.576 C 95.939 287.819,96.390 287.200,96.275 287.200 C 96.161 287.200,95.331 288.038,94.429 289.062 M252.960 293.000 C 252.961 296.300,253.022 297.597,253.098 295.882 C 253.173 294.167,253.172 291.467,253.097 289.882 C 253.021 288.297,252.959 289.700,252.960 293.000 M207.806 289.312 C 208.192 289.924,208.609 290.324,208.732 290.201 C 208.855 290.078,208.539 289.578,208.030 289.089 L 207.104 288.200 207.806 289.312 M271.555 289.500 C 270.210 290.987,269.460 292.000,269.703 292.000 C 269.813 292.000,270.567 291.190,271.379 290.200 C 273.006 288.214,273.117 287.772,271.555 289.500 M209.406 291.712 C 209.792 292.324,210.209 292.724,210.332 292.601 C 210.455 292.478,210.139 291.978,209.630 291.489 L 208.704 290.600 209.406 291.712 M331.067 291.067 C 330.920 291.213,330.803 292.158,330.806 293.167 C 330.811 294.511,330.917 294.840,331.206 294.400 C 331.422 294.070,331.565 293.125,331.522 292.300 C 331.436 290.655,331.447 290.686,331.067 291.067 M105.115 291.528 C 104.738 291.678,106.036 291.800,108.000 291.800 C 109.964 291.800,111.262 291.678,110.885 291.528 C 110.508 291.379,109.210 291.256,108.000 291.256 C 106.790 291.256,105.492 291.379,105.115 291.528 M156.600 291.600 C 156.096 291.817,156.022 291.944,156.400 291.944 C 156.730 291.944,157.360 291.789,157.800 291.600 C 158.304 291.383,158.378 291.256,158.000 291.256 C 157.670 291.256,157.040 291.411,156.600 291.600 M191.687 292.300 C 191.068 292.905,190.930 293.096,191.381 292.724 C 191.832 292.352,192.650 291.869,193.200 291.649 C 193.888 291.375,193.984 291.243,193.506 291.225 C 193.125 291.211,192.306 291.695,191.687 292.300 M306.700 291.658 L 309.600 292.076 309.628 293.738 C 309.644 294.652,309.806 295.760,309.990 296.200 C 310.192 296.685,310.240 296.054,310.111 294.600 C 309.843 291.577,309.888 291.617,306.572 291.412 L 303.800 291.240 306.700 291.658 M66.000 293.576 C 66.000 294.443,66.180 295.264,66.400 295.400 C 66.644 295.551,66.800 294.937,66.800 293.824 C 66.800 292.821,66.620 292.000,66.400 292.000 C 66.180 292.000,66.000 292.709,66.000 293.576 M101.978 293.500 L 100.600 295.000 102.196 293.600 C 103.073 292.830,103.868 292.155,103.962 292.100 C 104.056 292.045,103.959 292.000,103.745 292.000 C 103.532 292.000,102.737 292.675,101.978 293.500 M112.035 292.100 C 112.128 292.155,112.833 292.740,113.602 293.400 L 115.000 294.600 113.825 293.300 C 113.179 292.585,112.474 292.000,112.258 292.000 C 112.043 292.000,111.943 292.045,112.035 292.100 M153.447 293.601 C 152.651 294.482,152.001 295.427,152.001 295.701 C 152.002 295.976,152.342 295.644,152.756 294.965 C 153.171 294.285,154.004 293.340,154.609 292.865 C 155.213 292.389,155.525 292.000,155.300 292.000 C 155.076 292.000,154.242 292.721,153.447 293.601 M202.197 293.201 C 204.093 295.418,204.120 295.442,203.686 294.600 C 203.459 294.160,202.762 293.351,202.137 292.801 L 201.000 291.803 202.197 293.201 M289.764 293.231 C 290.334 293.908,290.800 294.658,290.800 294.897 C 290.800 295.137,290.905 295.229,291.032 295.101 C 291.458 294.676,289.698 292.000,288.993 292.000 C 288.848 292.000,289.195 292.554,289.764 293.231 M91.400 293.600 C 91.250 294.073,91.217 294.550,91.327 294.660 C 91.437 294.770,91.650 294.473,91.800 294.000 C 91.950 293.527,91.983 293.050,91.873 292.940 C 91.763 292.830,91.550 293.127,91.400 293.600 M164.428 293.000 C 164.428 293.220,164.686 293.850,165.000 294.400 C 165.314 294.950,165.572 295.220,165.572 295.000 C 165.572 294.780,165.314 294.150,165.000 293.600 C 164.686 293.050,164.428 292.780,164.428 293.000 M174.599 304.522 C 174.600 310.817,174.722 315.661,174.872 315.284 C 175.230 314.383,175.234 296.649,174.876 294.638 C 174.724 293.778,174.599 298.226,174.599 304.522 M118.400 294.800 C 117.576 295.064,117.541 295.126,118.200 295.154 C 118.640 295.173,119.270 295.013,119.600 294.800 C 120.301 294.347,119.814 294.347,118.400 294.800 M299.275 295.400 C 299.286 295.840,299.432 296.740,299.600 297.400 L 299.905 298.600 299.925 297.400 C 299.935 296.740,299.789 295.840,299.600 295.400 L 299.256 294.600 299.275 295.400 M180.252 296.100 C 179.930 297.301,179.985 302.822,180.328 303.685 C 180.478 304.062,180.600 302.307,180.600 299.785 C 180.600 294.779,180.602 294.796,180.252 296.100 M211.462 296.600 C 211.596 297.480,211.772 298.275,211.853 298.367 C 212.156 298.710,211.929 296.568,211.581 295.800 C 211.329 295.242,211.293 295.485,211.462 296.600 M276.243 295.833 C 275.626 297.439,275.729 297.461,283.427 297.368 C 287.513 297.319,290.951 297.182,291.068 297.065 C 291.186 296.948,287.924 296.891,283.819 296.939 L 276.357 297.026 276.586 296.113 C 276.847 295.073,276.609 294.879,276.243 295.833 M90.600 297.200 C 90.446 298.110,90.404 298.938,90.507 299.040 C 90.610 299.143,90.813 298.477,90.960 297.560 C 91.107 296.643,91.148 295.815,91.053 295.720 C 90.958 295.624,90.754 296.290,90.600 297.200 M189.228 296.257 C 189.189 297.454,189.525 297.517,196.024 297.516 C 200.872 297.515,201.414 297.459,199.400 297.167 C 198.080 296.976,195.396 296.853,193.434 296.893 C 190.228 296.959,189.838 296.888,189.563 296.183 C 189.271 295.438,189.255 295.442,189.228 296.257 M330.000 297.400 C 330.000 297.950,330.180 298.400,330.400 298.400 C 330.620 298.400,330.800 297.950,330.800 297.400 C 330.800 296.850,330.620 296.400,330.400 296.400 C 330.180 296.400,330.000 296.850,330.000 297.400 M99.443 298.233 C 99.127 299.055,99.180 301.607,99.530 302.490 C 99.681 302.870,99.803 301.925,99.802 300.391 C 99.800 297.340,99.795 297.314,99.443 298.233 M267.740 300.800 C 267.740 302.670,267.809 303.435,267.893 302.500 C 267.977 301.565,267.977 300.035,267.893 299.100 C 267.809 298.165,267.740 298.930,267.740 300.800 M66.800 298.776 C 66.800 299.203,66.980 299.664,67.200 299.800 C 67.427 299.940,67.600 299.604,67.600 299.024 C 67.600 298.461,67.420 298.000,67.200 298.000 C 66.980 298.000,66.800 298.349,66.800 298.776 M151.754 302.800 C 151.754 305.550,151.818 306.675,151.896 305.300 C 151.974 303.925,151.974 301.675,151.896 300.300 C 151.818 298.925,151.754 300.050,151.754 302.800 M329.200 301.600 C 329.200 302.260,329.380 302.800,329.600 302.800 C 329.820 302.800,330.000 302.260,330.000 301.600 C 330.000 300.940,329.820 300.400,329.600 300.400 C 329.380 300.400,329.200 300.940,329.200 301.600 M67.757 301.788 C 67.902 302.775,68.400 302.990,68.400 302.067 C 68.400 301.590,68.236 301.200,68.035 301.200 C 67.835 301.200,67.710 301.465,67.757 301.788 M211.499 302.267 C 211.345 302.999,210.930 303.614,210.517 303.721 C 209.874 303.888,209.870 303.912,210.486 303.954 C 211.280 304.007,212.116 302.670,211.908 301.679 C 211.822 301.273,211.658 301.509,211.499 302.267 M90.480 302.200 C 90.480 302.640,90.624 303.450,90.800 304.000 C 91.054 304.792,91.120 304.833,91.120 304.200 C 91.120 303.760,90.976 302.950,90.800 302.400 C 90.546 301.608,90.480 301.567,90.480 302.200 M297.800 303.200 C 297.360 303.389,292.384 303.556,286.743 303.572 C 276.112 303.601,275.427 303.712,276.454 305.236 C 276.747 305.673,276.807 305.619,276.717 305.000 C 276.603 304.221,276.884 304.195,287.200 304.000 C 294.515 303.862,298.048 303.649,298.600 303.312 C 299.511 302.756,298.999 302.685,297.800 303.200 M189.354 303.774 C 189.228 304.104,189.217 304.605,189.331 304.887 C 189.444 305.169,189.551 304.995,189.568 304.499 L 189.600 303.598 198.500 303.855 C 203.395 303.996,207.310 304.021,207.200 303.910 C 206.612 303.320,189.578 303.191,189.354 303.774 M68.400 304.176 C 68.400 304.493,68.580 304.864,68.800 305.000 C 69.020 305.136,69.200 304.877,69.200 304.424 C 69.200 303.971,69.020 303.600,68.800 303.600 C 68.580 303.600,68.400 303.859,68.400 304.176 M252.873 309.000 C 252.840 312.080,252.944 314.809,253.106 315.064 C 253.268 315.319,253.351 313.429,253.291 310.864 C 253.121 303.640,252.941 302.834,252.873 309.000 M100.007 304.120 C 99.981 305.351,102.990 308.800,104.090 308.800 C 104.325 308.800,103.909 308.390,103.165 307.888 C 102.421 307.387,101.407 306.262,100.913 305.388 C 100.418 304.515,100.010 303.944,100.007 304.120 M114.216 306.300 L 112.735 308.200 114.267 306.549 C 115.110 305.641,116.070 304.801,116.400 304.681 C 116.901 304.499,116.892 304.458,116.348 304.432 C 115.990 304.414,115.030 305.255,114.216 306.300 M328.400 305.176 C 328.400 305.629,328.580 306.000,328.800 306.000 C 329.020 306.000,329.200 305.741,329.200 305.424 C 329.200 305.107,329.020 304.736,328.800 304.600 C 328.580 304.464,328.400 304.723,328.400 305.176 M91.415 306.600 C 91.798 308.627,95.027 312.880,97.400 314.484 C 98.068 314.935,97.693 314.431,96.556 313.348 C 94.114 311.020,92.566 308.934,91.773 306.899 C 91.276 305.626,91.222 305.581,91.415 306.600 M120.714 306.608 C 121.701 307.413,121.970 307.894,121.795 308.540 C 121.583 309.321,121.604 309.333,122.017 308.671 C 122.520 307.865,121.740 306.685,120.204 305.930 C 119.762 305.713,119.991 306.018,120.714 306.608 M268.012 306.000 C 268.012 306.330,268.187 306.870,268.400 307.200 C 268.745 307.733,268.788 307.733,268.788 307.200 C 268.788 306.870,268.613 306.330,268.400 306.000 C 268.055 305.467,268.012 305.467,268.012 306.000 M277.406 306.912 C 277.792 307.524,278.209 307.924,278.332 307.801 C 278.455 307.678,278.139 307.178,277.630 306.689 L 276.704 305.800 277.406 306.912 M293.684 306.739 C 293.353 306.950,293.608 307.067,294.400 307.067 C 295.192 307.067,295.447 306.950,295.116 306.739 C 294.832 306.559,294.510 306.412,294.400 306.412 C 294.290 306.412,293.968 306.559,293.684 306.739 M261.750 311.400 C 261.751 313.820,261.816 314.758,261.896 313.485 C 261.976 312.212,261.975 310.232,261.894 309.085 C 261.814 307.938,261.749 308.980,261.750 311.400 M126.942 311.000 C 126.941 312.980,127.008 313.840,127.092 312.912 C 127.176 311.984,127.177 310.364,127.095 309.312 C 127.012 308.260,126.943 309.020,126.942 311.000 M191.200 308.154 C 191.200 308.239,191.695 308.627,192.300 309.016 L 193.400 309.724 192.638 308.862 C 191.964 308.099,191.200 307.723,191.200 308.154 M279.182 308.578 C 279.490 308.949,280.295 309.534,280.971 309.877 C 282.495 310.652,282.252 310.367,280.200 308.974 C 279.332 308.385,278.874 308.207,279.182 308.578 M105.896 309.265 C 106.851 309.643,108.893 309.656,109.473 309.287 C 109.733 309.122,108.876 308.987,107.569 308.987 C 106.261 308.987,105.509 309.112,105.896 309.265 M326.464 310.000 C 325.708 311.709,326.121 312.442,326.928 310.824 C 327.662 309.353,327.763 308.800,327.298 308.800 C 327.131 308.800,326.756 309.340,326.464 310.000 M70.800 310.429 C 70.800 311.333,71.884 312.650,72.292 312.241 C 72.432 312.101,72.334 311.774,72.073 311.513 C 71.813 311.253,71.600 310.716,71.600 310.320 C 71.600 309.924,71.420 309.600,71.200 309.600 C 70.980 309.600,70.800 309.973,70.800 310.429 M196.500 310.676 C 196.885 310.776,197.515 310.776,197.900 310.676 C 198.285 310.575,197.970 310.493,197.200 310.493 C 196.430 310.493,196.115 310.575,196.500 310.676 M271.597 311.900 C 272.332 312.835,273.000 313.600,273.081 313.600 C 273.439 313.600,272.375 312.111,271.367 311.200 C 270.395 310.322,270.423 310.408,271.597 311.900 M283.700 310.687 C 284.305 310.778,285.295 310.778,285.900 310.687 C 286.505 310.595,286.010 310.520,284.800 310.520 C 283.590 310.520,283.095 310.595,283.700 310.687 M296.493 312.760 C 296.021 313.398,294.727 314.508,293.618 315.227 C 291.363 316.688,290.982 317.140,292.795 316.203 C 294.289 315.430,296.701 313.331,297.229 312.345 C 297.819 311.243,297.469 311.440,296.493 312.760 M118.004 313.656 C 117.016 314.549,115.576 315.614,114.804 316.022 C 114.032 316.431,113.594 316.773,113.831 316.782 C 114.478 316.809,117.638 314.625,118.975 313.228 C 120.613 311.516,120.141 311.724,118.004 313.656 M72.400 314.029 C 72.400 314.668,73.595 315.741,73.919 315.393 C 74.074 315.227,73.975 315.010,73.700 314.912 C 73.425 314.814,73.200 314.478,73.200 314.167 C 73.200 313.855,73.020 313.600,72.800 313.600 C 72.580 313.600,72.400 313.793,72.400 314.029 M186.400 313.747 C 186.400 314.054,189.255 316.078,189.434 315.899 C 189.534 315.799,188.893 315.238,188.008 314.653 C 187.124 314.068,186.400 313.660,186.400 313.747 M274.400 314.582 C 275.509 315.795,277.547 316.986,277.904 316.629 C 278.030 316.503,277.937 316.400,277.697 316.400 C 277.457 316.400,276.392 315.745,275.331 314.944 C 273.771 313.768,273.592 313.698,274.400 314.582 M206.000 315.220 L 205.000 316.022 206.100 315.547 C 206.705 315.285,207.200 314.920,207.200 314.736 C 207.200 314.279,207.145 314.302,206.000 315.220 M235.907 315.633 C 235.534 316.283,234.817 316.980,234.314 317.182 C 233.811 317.384,233.670 317.555,234.000 317.562 C 234.799 317.579,235.757 316.812,236.367 315.666 C 237.103 314.284,236.697 314.256,235.907 315.633 M127.276 315.166 C 127.368 315.477,127.884 316.006,128.422 316.341 C 129.180 316.814,129.265 316.821,128.800 316.375 C 128.470 316.059,127.954 315.530,127.654 315.200 C 127.215 314.717,127.141 314.710,127.276 315.166 M98.800 315.396 C 98.800 315.670,101.249 316.884,101.432 316.701 C 101.519 316.614,100.962 316.244,100.195 315.878 C 99.428 315.512,98.800 315.295,98.800 315.396 M225.937 316.278 C 226.414 317.175,227.137 317.796,227.399 317.534 C 227.479 317.454,227.078 316.941,226.508 316.394 C 225.550 315.477,225.506 315.468,225.937 316.278 M190.000 316.219 C 190.000 316.513,192.449 317.650,192.809 317.524 C 193.004 317.456,192.451 317.098,191.582 316.730 C 190.712 316.361,190.000 316.131,190.000 316.219 M254.344 316.776 C 254.864 317.229,255.479 317.600,255.711 317.600 C 256.203 317.600,256.179 317.580,254.600 316.655 L 253.400 315.953 254.344 316.776 M260.983 316.428 C 260.837 316.663,260.332 317.012,259.859 317.203 C 259.273 317.439,259.203 317.557,259.638 317.575 C 259.989 317.589,260.602 317.240,261.000 316.800 C 261.398 316.360,261.617 316.000,261.486 316.000 C 261.354 316.000,261.128 316.193,260.983 316.428 M130.900 317.087 C 131.505 317.178,132.495 317.178,133.100 317.087 C 133.705 316.995,133.210 316.920,132.000 316.920 C 130.790 316.920,130.295 316.995,130.900 317.087 M146.100 317.091 C 146.925 317.178,148.275 317.178,149.100 317.091 C 149.925 317.005,149.250 316.934,147.600 316.934 C 145.950 316.934,145.275 317.005,146.100 317.091 M168.400 317.218 C 169.662 317.600,171.990 317.627,172.881 317.272 C 173.256 317.122,172.176 316.981,170.481 316.958 C 168.537 316.931,167.769 317.027,168.400 317.218 M106.300 317.889 C 107.015 317.978,108.185 317.978,108.900 317.889 C 109.615 317.801,109.030 317.728,107.600 317.728 C 106.170 317.728,105.585 317.801,106.300 317.889 M195.700 317.891 C 196.525 317.978,197.875 317.978,198.700 317.891 C 199.525 317.805,198.850 317.734,197.200 317.734 C 195.550 317.734,194.875 317.805,195.700 317.891 M281.915 318.072 C 282.776 318.414,286.695 318.406,287.924 318.060 C 288.432 317.917,287.133 317.800,285.039 317.800 C 282.944 317.800,281.538 317.922,281.915 318.072 M316.400 324.800 C 315.850 325.447,315.187 325.981,314.927 325.988 C 314.667 325.995,314.340 326.360,314.200 326.800 C 314.051 327.271,313.595 327.600,313.093 327.600 C 312.458 327.600,312.356 327.716,312.693 328.053 C 313.030 328.390,313.434 328.264,314.273 327.560 C 315.833 326.251,318.167 323.597,317.746 323.612 C 317.556 323.619,316.950 324.153,316.400 324.800 M82.196 326.396 C 82.826 327.054,83.419 327.514,83.513 327.420 C 83.722 327.212,81.756 325.200,81.343 325.200 C 81.182 325.200,81.566 325.738,82.196 326.396 M85.594 329.182 C 86.141 329.602,86.657 329.876,86.742 329.792 C 87.004 329.529,85.686 328.400,85.129 328.409 C 84.838 328.414,85.047 328.761,85.594 329.182 M310.217 329.724 C 309.050 330.434,308.288 331.200,308.749 331.200 C 308.973 331.200,309.660 330.756,310.278 330.213 C 311.489 329.147,311.466 328.964,310.217 329.724 M88.400 331.157 C 88.400 331.507,89.310 332.019,90.300 332.225 C 90.575 332.282,90.800 332.165,90.800 331.965 C 90.800 331.764,90.440 331.600,90.000 331.600 C 89.560 331.600,89.200 331.420,89.200 331.200 C 89.200 330.980,89.020 330.800,88.800 330.800 C 88.580 330.800,88.400 330.961,88.400 331.157 M145.000 340.000 C 146.112 340.478,147.200 340.478,147.200 340.000 C 147.200 339.780,146.525 339.613,145.700 339.628 C 144.497 339.651,144.358 339.724,145.000 340.000 M172.105 339.887 C 172.714 339.979,173.614 339.977,174.105 339.882 C 174.597 339.787,174.100 339.711,173.000 339.714 C 171.900 339.717,171.497 339.795,172.105 339.887 " stroke="none" fill="#277eb7" fill-rule="evenodd"></path></g></svg>